<?xml version="1.0" encoding="UTF-8" standalone="no"?><svg xmlns="http://www.w3.org/2000/svg" xmlns:xlink="http://www.w3.org/1999/xlink" data-name="Layer 1" fill="#c1ff72" height="448" preserveAspectRatio="xMidYMid meet" version="1" viewBox="0.0 0.0 285.0 448.0" width="285" zoomAndPan="magnify"><g id="change1_1"><path d="M283.05,448a2,2,0,0,1-2-2V142.53C281.05,66.14,218.91,4,142.53,4S4,66.14,4,142.53V446a2,2,0,0,1-4,0V142.53C0,63.94,63.94,0,142.53,0S285.05,63.94,285.05,142.53V446A2,2,0,0,1,283.05,448Zm-19.54-2.06v-303a121,121,0,0,0-242,0v303a2,2,0,0,0,4,0v-303a117,117,0,0,1,234,0v303a2,2,0,1,0,4,0ZM242,445.87V143.31a99.44,99.44,0,0,0-198.88,0V445.87a2,2,0,0,0,4,0V143.31a95.44,95.44,0,0,1,190.88,0V445.87a2,2,0,0,0,4,0Zm-21.55-.06V143.71a77.9,77.9,0,1,0-155.79,0v302.1a2,2,0,1,0,4,0V143.71a73.9,73.9,0,1,1,147.79,0v302.1a2,2,0,0,0,4,0Zm-21.54-.07V144.1a56.35,56.35,0,0,0-112.7,0V445.74a2,2,0,0,0,4,0V144.1a52.35,52.35,0,0,1,104.7,0V445.74a2,2,0,0,0,4,0Zm-21.55-.06V144.49a34.81,34.81,0,1,0-69.61,0V445.68a2,2,0,0,0,4,0V144.49a30.81,30.81,0,1,1,61.61,0V445.68a2,2,0,0,0,4,0Z" fill="inherit"/></g></svg>