<?xml version="1.0" encoding="UTF-8" standalone="no"?><svg xmlns="http://www.w3.org/2000/svg" xmlns:xlink="http://www.w3.org/1999/xlink" fill="#000000" height="305.6" preserveAspectRatio="xMidYMid meet" version="1" viewBox="98.8 134.1 303.2 305.6" width="303.2" zoomAndPan="magnify"><g><g id="change1_2"><path d="M100.59,140.67c-0.19,32.13-0.18,64.27,0.03,96.4c0.21,31.97,0.62,63.93,1.23,95.89 c0.34,17.98,0.75,35.96,1.22,53.93c0.08,3.21,5.08,3.22,5,0c-0.84-32.12-1.48-64.25-1.92-96.38c-0.43-31.96-0.67-63.93-0.7-95.9 c-0.02-17.98,0.03-35.96,0.13-53.95C105.61,137.45,100.61,137.45,100.59,140.67L100.59,140.67z" fill="#00bf63"/></g></g><g><g id="change1_1"><path d="M102.01,143.21c31.78-0.53,63.56-1.06,95.34-1.6s63.56-1.06,95.34-1.6c17.8-0.3,35.61-0.6,53.41-0.89 c3.21-0.05,3.22-5.05,0-5c-31.78,0.53-63.56,1.06-95.34,1.6s-63.56,1.06-95.34,1.6c-17.8,0.3-35.61,0.6-53.41,0.89 C98.8,138.26,98.79,143.26,102.01,143.21L102.01,143.21z" fill="#00bf63"/></g></g><g><g id="change2_2"><path d="M126.42,163.18c-0.19,32.13-0.18,64.27,0.03,96.4c0.21,31.97,0.62,63.93,1.23,95.89 c0.34,17.98,0.75,35.96,1.22,53.93c0.08,3.21,5.08,3.22,5,0c-0.84-32.12-1.48-64.25-1.92-96.38c-0.43-31.96-0.67-63.93-0.7-95.9 c-0.02-17.98,0.03-35.96,0.13-53.95C131.44,159.96,126.44,159.96,126.42,163.18L126.42,163.18z" fill="#7ed957"/></g></g><g><g id="change2_1"><path d="M127.84,165.72c31.78-0.53,63.56-1.06,95.34-1.6s63.56-1.06,95.34-1.6c17.8-0.3,35.61-0.6,53.41-0.89 c3.21-0.05,3.22-5.05,0-5c-31.78,0.53-63.56,1.06-95.34,1.6s-63.56,1.06-95.34,1.6c-17.8,0.3-35.61,0.6-53.41,0.89 C124.63,160.77,124.62,165.77,127.84,165.72L127.84,165.72z" fill="#7ed957"/></g></g><g><g id="change3_1"><path d="M153.3,190.22c-0.19,32.13-0.18,64.27,0.03,96.4c0.21,31.97,0.62,63.93,1.23,95.89 c0.34,17.98,0.75,35.96,1.22,53.93c0.08,3.21,5.08,3.22,5,0c-0.84-32.12-1.48-64.25-1.92-96.38c-0.43-31.96-0.67-63.93-0.7-95.9 c-0.02-17.98,0.03-35.96,0.13-53.95C158.32,187,153.32,186.99,153.3,190.22L153.3,190.22z" fill="#c1ff72"/></g></g><g><g id="change3_2"><path d="M154.72,192.75c31.78-0.53,63.56-1.06,95.34-1.6s63.56-1.06,95.34-1.6c17.8-0.3,35.61-0.6,53.41-0.89 c3.21-0.05,3.22-5.05,0-5c-31.78,0.53-63.56,1.06-95.34,1.6c-31.78,0.53-63.56,1.06-95.34,1.6c-17.8,0.3-35.61,0.6-53.41,0.89 C151.5,187.81,151.49,192.81,154.72,192.75L154.72,192.75z" fill="#c1ff72"/></g></g></svg>