<?xml version="1.0" encoding="UTF-8"?><svg xmlns="http://www.w3.org/2000/svg" xmlns:xlink="http://www.w3.org/1999/xlink" height="156.3" preserveAspectRatio="xMidYMid meet" version="1.0" viewBox="0.0 0.0 467.0 156.3" width="467.0" zoomAndPan="magnify"><defs><clipPath id="a"><path d="M 0 0 L 467.019531 0 L 467.019531 153.828125 L 0 153.828125 Z M 0 0"/></clipPath></defs><g><g id="change1_2"><path d="M 224.105469 7.78125 C 220.980469 6.667969 216.300781 7.117188 213.390625 5.785156 C 216.625 4.925781 222.515625 5.375 224.105469 7.78125" fill="#231f20" fill-rule="evenodd"/></g><g id="change1_3"><path d="M 215.882812 12.515625 C 204.226562 10.632812 192.386719 12.800781 182.238281 15.507812 C 187.460938 11.601562 208.074219 8.664062 215.882812 12.515625" fill="#231f20" fill-rule="evenodd"/></g><g id="change1_4"><path d="M 232.332031 25.226562 C 231.769531 25.570312 229.683594 23.878906 230.589844 23.980469 C 223.359375 21.066406 212.558594 17.605469 202.175781 19.242188 C 205.105469 16.394531 212.582031 18.117188 215.136719 18.496094 C 222.109375 19.535156 229.285156 21.390625 232.332031 25.226562" fill="#231f20" fill-rule="evenodd"/></g><g id="change1_5"><path d="M 245.789062 26.722656 C 248.714844 28.144531 253.0625 29.382812 253.019531 32.953125 C 250.917969 30.566406 247.777344 29.21875 245.789062 26.722656" fill="#231f20" fill-rule="evenodd"/></g><g id="change1_6"><path d="M 149.585938 35.941406 C 140.042969 34.847656 128.671875 36.554688 123.667969 41.175781 C 123.304688 39.847656 124.933594 38.519531 125.910156 37.9375 C 130.796875 35.035156 140.164062 33.90625 146.347656 34.695312 C 147.457031 34.839844 148.957031 34.90625 149.585938 35.941406" fill="#231f20" fill-rule="evenodd"/></g><g id="change1_7"><path d="M 307.851562 56.378906 C 306.914062 56.773438 306.582031 55.558594 306.105469 55.132812 C 301.527344 51.039062 297.171875 45.996094 290.902344 43.171875 C 283.929688 40.027344 274.890625 38.144531 265.730469 37.4375 C 259.347656 36.945312 254.613281 38.898438 248.78125 38.683594 C 251.578125 36.605469 256.238281 36.539062 259.746094 36.191406 C 270.253906 35.152344 282.925781 38.382812 291.152344 41.925781 C 298.78125 44.679688 303.039062 50.808594 307.851562 56.378906" fill="#231f20" fill-rule="evenodd"/></g><g id="change1_8"><path d="M 189.464844 40.679688 C 187.003906 41.34375 179.613281 40.808594 176.253906 42.671875 C 177.863281 39.183594 186.691406 39.363281 189.464844 40.679688" fill="#231f20" fill-rule="evenodd"/></g><g id="change1_9"><path d="M 298.128906 51.394531 C 287.570312 44.03125 269.53125 40.078125 252.023438 41.675781 C 252.621094 40.726562 254.375 40.519531 255.261719 40.429688 C 271.289062 38.78125 289.453125 42.894531 298.128906 51.394531" fill="#231f20" fill-rule="evenodd"/></g><g id="change1_10"><path d="M 133.886719 44.167969 C 133.183594 45.019531 133.402344 43.261719 133.636719 42.921875 C 135.773438 41.839844 141.578125 40.289062 143.105469 42.421875 C 140.101562 42.019531 135.300781 43.433594 133.886719 44.167969" fill="#231f20" fill-rule="evenodd"/></g><g id="change1_11"><path d="M 189.964844 43.421875 C 185.324219 42.964844 181.832031 44.886719 179.496094 45.910156 C 178.828125 43.980469 182.402344 42.804688 184.730469 42.421875 C 186.519531 42.128906 189.398438 41.875 189.964844 43.421875" fill="#231f20" fill-rule="evenodd"/></g><g id="change1_12"><path d="M 286.664062 49.902344 C 280.988281 47.1875 274.121094 45.660156 267.226562 44.167969 C 275.246094 43.5625 282.078125 46.25 286.664062 49.902344" fill="#231f20" fill-rule="evenodd"/></g><g id="change1_13"><path d="M 190.460938 45.414062 C 189.972656 47.167969 186.675781 46.113281 185.226562 46.910156 C 184.109375 47.035156 184.144531 48.320312 182.734375 48.15625 C 181.960938 44.996094 187.488281 44.832031 190.460938 45.414062" fill="#231f20" fill-rule="evenodd"/></g><g id="change1_14"><path d="M 285.171875 52.640625 C 281.792969 50.78125 275.308594 49.113281 270.714844 48.40625 C 274.402344 46.886719 283.066406 49.269531 285.171875 52.640625" fill="#231f20" fill-rule="evenodd"/></g><g id="change1_15"><path d="M 265.480469 74.574219 C 263.335938 74.566406 263.714844 71.496094 263.238281 70.335938 C 261.570312 66.300781 256.207031 59.332031 252.269531 56.878906 C 247.472656 53.886719 238.667969 50.78125 230.589844 51.394531 C 215.507812 52.539062 206.503906 61.570312 199.683594 71.582031 C 203.609375 73.347656 208.65625 74.824219 211.644531 77.816406 C 213.113281 79.28125 215.105469 81.847656 214.386719 84.292969 C 212.472656 84.214844 212.503906 82.1875 211.644531 81.054688 C 206.484375 75.960938 196.464844 70.808594 186.222656 73.078125 C 179.066406 74.664062 173.167969 78.417969 168.777344 83.046875 C 167.382812 84.523438 166.105469 86.425781 164.042969 86.785156 C 163.433594 84.6875 166.355469 81.90625 168.03125 80.304688 C 174.121094 74.492188 184.773438 69.195312 196.691406 71.335938 C 201.421875 65.101562 206.113281 59.183594 213.390625 54.636719 C 221.894531 49.320312 234.21875 48.179688 244.792969 51.394531 C 250.105469 53.011719 254.226562 55.1875 257.503906 58.625 C 261.238281 62.535156 266.242188 68.476562 265.480469 74.574219" fill="#231f20" fill-rule="evenodd"/></g><g id="change1_16"><path d="M 121.425781 51.644531 C 107.339844 49.242188 95.828125 53.015625 88.027344 60.117188 C 86.246094 61.742188 83.871094 63.472656 82.792969 64.855469 C 81.800781 66.125 81.921875 68.191406 79.800781 68.34375 C 80.203125 67.039062 81.039062 65.019531 82.046875 63.855469 C 88.953125 55.871094 102.863281 46.101562 118.933594 50.648438 C 119.632812 50.847656 120.0625 50.367188 121.425781 51.644531" fill="#231f20" fill-rule="evenodd"/></g><g id="change1_17"><path d="M 282.179688 54.386719 C 279.414062 53.910156 277.007812 53.078125 274.453125 52.390625 C 274.265625 51.457031 275.40625 51.847656 275.449219 51.144531 C 277.292969 52.628906 281.46875 51.773438 282.179688 54.386719" fill="#231f20" fill-rule="evenodd"/></g><g id="change1_18"><path d="M 251.273438 59.621094 C 244.632812 56.425781 237.472656 54.621094 228.59375 55.382812 C 218.238281 56.273438 209.757812 63.160156 204.167969 69.339844 C 203.375 70.214844 202.992188 72.0625 201.425781 71.832031 C 201.324219 69.15625 204.230469 67.679688 206.164062 65.851562 C 208.003906 64.113281 209.640625 61.945312 211.644531 60.367188 C 221.476562 52.636719 241.421875 50.507812 251.273438 59.621094" fill="#231f20" fill-rule="evenodd"/></g><g id="change1_19"><path d="M 141.613281 59.621094 C 142.125 60.066406 139.753906 59.140625 138.621094 58.871094 C 131.425781 57.167969 121.214844 58.847656 114.695312 60.617188 C 118.664062 56.570312 135.644531 55.652344 141.113281 59.121094 C 141.304688 59.242188 142.046875 58.921875 141.613281 59.621094" fill="#231f20" fill-rule="evenodd"/></g><g id="change1_20"><path d="M 305.855469 58.125 C 307.855469 60.738281 311.445312 64.273438 310.589844 68.09375 C 309.003906 64.78125 307.085938 61.796875 305.855469 58.125" fill="#231f20" fill-rule="evenodd"/></g><g id="change1_21"><path d="M 303.113281 59.121094 C 303.152344 58.832031 303.570312 58.910156 303.863281 58.871094 C 305.503906 62.226562 308.324219 65.414062 308.097656 69.839844 C 306.121094 66.582031 305.164062 62.304688 303.113281 59.121094" fill="#231f20" fill-rule="evenodd"/></g><g id="change1_22"><path d="M 125.660156 65.351562 C 125.613281 65.070312 125.410156 65.214844 125.410156 65.351562 C 125.464844 64.234375 130.917969 63.246094 131.890625 64.605469 C 130.328125 65.535156 127.761719 65.460938 125.410156 65.601562 C 125.367188 65.390625 125.507812 65.367188 125.660156 65.351562" fill="#231f20" fill-rule="evenodd"/></g><g id="change1_23"><path d="M 233.328125 68.839844 C 232.617188 69.257812 228.9375 68.445312 227.097656 68.34375 C 228.136719 66.753906 233.027344 67.3125 233.328125 68.839844" fill="#231f20" fill-rule="evenodd"/></g><g id="change1_24"><path d="M 394.085938 86.289062 C 386.511719 78.429688 375.65625 70.96875 361.1875 71.335938 C 353.863281 71.519531 348.488281 74.375 341.746094 75.570312 C 345.089844 73.292969 349.445312 71.691406 353.710938 70.835938 C 369.902344 67.578125 387.710938 74.289062 394.085938 86.289062" fill="#231f20" fill-rule="evenodd"/></g><g id="change1_25"><path d="M 89.523438 71.832031 C 89.292969 71.296875 90.367188 70.289062 91.265625 70.085938 C 90.296875 72.441406 88.589844 74.058594 86.53125 75.320312 C 85.816406 74.242188 87.554688 73.851562 87.777344 73.578125 C 88.242188 73.007812 88.277344 71.355469 89.523438 71.832031" fill="#231f20" fill-rule="evenodd"/></g><g id="change1_26"><path d="M 55.378906 76.816406 C 58.117188 72.148438 65.714844 69.980469 72.574219 70.835938 C 76.710938 71.351562 81.460938 72.945312 83.042969 75.570312 C 78.371094 73.769531 74.421875 71.777344 67.589844 72.332031 C 63.589844 72.65625 60.070312 74.351562 57.371094 75.820312 C 56.632812 76.222656 57.589844 75.792969 57.371094 76.070312 C 56.863281 76.714844 56.089844 76.605469 55.378906 76.816406" fill="#231f20" fill-rule="evenodd"/></g><g id="change1_27"><path d="M 354.707031 75.820312 C 353.046875 77.394531 349.824219 76.65625 347.476562 77.316406 C 345.769531 77.796875 344.773438 79.070312 343.488281 78.8125 C 344.277344 75.769531 350.441406 75.492188 354.707031 75.820312" fill="#231f20" fill-rule="evenodd"/></g><g id="change1_28"><path d="M 378.632812 81.304688 C 375.332031 80.878906 371.121094 79.152344 366.667969 78.8125 C 364.234375 78.625 361.898438 79.023438 359.691406 78.5625 C 360.914062 77.46875 363.394531 77.554688 365.171875 77.566406 C 368.007812 77.582031 371.148438 78.292969 373.648438 78.8125 C 374.273438 79.351562 377.835938 79.480469 378.632812 81.304688" fill="#231f20" fill-rule="evenodd"/></g><g id="change1_29"><path d="M 355.203125 79.058594 C 351.796875 80.269531 347.242188 80.113281 343.488281 80.058594 C 345.304688 78.21875 351.429688 78.757812 355.203125 79.058594" fill="#231f20" fill-rule="evenodd"/></g><g id="change1_30"><path d="M 176.753906 83.046875 C 176.488281 82.117188 177.6875 82.652344 177.5 81.800781 C 181.15625 80.339844 186.238281 79.191406 191.707031 79.558594 C 195.175781 79.789062 199.003906 80.40625 201.179688 82.050781 C 194.160156 79.976562 181.359375 80.765625 176.753906 83.046875" fill="#231f20" fill-rule="evenodd"/></g><g id="change1_31"><path d="M 71.078125 80.554688 C 70.902344 81.460938 69.261719 80.898438 68.335938 81.054688 C 69.183594 81.617188 71.089844 81.125 71.078125 82.550781 C 68.996094 82.171875 65.128906 83.503906 63.601562 82.800781 C 63.648438 81.433594 65.46875 81.839844 66.59375 81.550781 C 65.183594 80.816406 63.730469 82.175781 61.855469 81.800781 C 64.269531 79.808594 67.460938 80.015625 71.078125 80.554688" fill="#231f20" fill-rule="evenodd"/></g><g id="change1_32"><path d="M 193.949219 83.296875 C 191.855469 82.867188 187.382812 82.574219 184.230469 83.046875 C 185.441406 80.78125 193.007812 80.863281 193.949219 83.296875" fill="#231f20" fill-rule="evenodd"/></g><g id="change1_33"><path d="M 399.316406 84.292969 C 399.769531 81.914062 403.25 83.375 404.550781 83.546875 C 411.585938 84.476562 418.6875 87.304688 422.496094 91.769531 C 423.015625 93.574219 424.464844 94.457031 424.988281 96.257812 C 419.722656 89.160156 409.429688 84.1875 399.316406 84.292969" fill="#231f20" fill-rule="evenodd"/></g><g id="change1_34"><path d="M 191.957031 85.539062 C 191.078125 86.964844 187.230469 85.449219 185.476562 86.535156 C 185.390625 83.902344 190.6875 84.589844 191.957031 85.539062" fill="#231f20" fill-rule="evenodd"/></g><g id="change1_35"><path d="M 117.1875 88.28125 C 116.316406 88.15625 116.199219 87.273438 115.191406 87.285156 C 115.664062 86.1875 117.03125 87.515625 117.1875 88.28125" fill="#231f20" fill-rule="evenodd"/></g><g id="change1_36"><path d="M 367.664062 91.273438 C 361.808594 88.988281 351.195312 86.722656 343.738281 89.03125 C 344.179688 86.652344 349.179688 86.515625 353.210938 86.785156 C 358.746094 87.15625 365.203125 88.722656 367.664062 91.273438" fill="#231f20" fill-rule="evenodd"/></g><g id="change1_37"><path d="M 214.140625 87.285156 C 215.769531 87.222656 218.253906 90.597656 217.128906 92.519531 C 215.636719 91.269531 215.441406 88.722656 214.140625 87.285156" fill="#231f20" fill-rule="evenodd"/></g><g id="change1_38"><path d="M 43.164062 88.78125 C 38.828125 88.445312 34.203125 89.109375 31.699219 89.777344 C 32.769531 86.804688 40.929688 86.777344 43.164062 88.78125" fill="#231f20" fill-rule="evenodd"/></g><g id="change1_39"><path d="M 394.832031 87.535156 C 395.121094 87.492188 395.277344 87.589844 395.332031 87.785156 C 397.109375 90.335938 399.878906 93.191406 399.816406 96.753906 C 398.03125 93.964844 395.15625 90.957031 394.832031 87.535156" fill="#231f20" fill-rule="evenodd"/></g><g id="change1_40"><path d="M 422.246094 95.261719 C 420.953125 95.226562 420.738281 94.109375 420.253906 93.265625 C 417.714844 90.988281 413.894531 89.988281 411.03125 88.03125 C 415.664062 88.558594 420.816406 90.703125 422.246094 95.261719" fill="#231f20" fill-rule="evenodd"/></g><g id="change1_41"><path d="M 44.160156 91.769531 C 42.796875 92.628906 40.789062 91.761719 38.925781 92.019531 C 36.800781 92.316406 35.566406 93.578125 34.191406 94.265625 C 34.046875 90.117188 41.507812 90.015625 44.160156 91.769531" fill="#231f20" fill-rule="evenodd"/></g><g id="change1_42"><path d="M 364.425781 93.015625 C 363.679688 93.585938 361.746094 92.523438 360.1875 92.269531 C 358.519531 91.996094 356.6875 92.402344 355.703125 91.523438 C 357.757812 89.886719 364.175781 91.222656 364.425781 93.015625" fill="#231f20" fill-rule="evenodd"/></g><g id="change1_43"><path d="M 412.527344 91.769531 C 416.269531 91.351562 418.988281 94.117188 420.503906 96.753906 C 417.796875 96.125 415.632812 92.832031 412.527344 91.769531" fill="#231f20" fill-rule="evenodd"/></g><g id="change1_44"><path d="M 32.699219 92.769531 C 31.679688 94.324219 29.449219 94.671875 27.714844 95.511719 C 27.183594 93.472656 31.148438 92.742188 32.699219 92.769531" fill="#231f20" fill-rule="evenodd"/></g><g id="change1_45"><path d="M 358.445312 93.515625 C 359.777344 93.898438 364.246094 93.320312 363.679688 95.511719 C 361.960938 95.066406 359.722656 95.144531 357.945312 94.761719 C 357.90625 94.140625 358.335938 93.992188 358.445312 93.515625" fill="#231f20" fill-rule="evenodd"/></g><g id="change1_46"><path d="M 295.140625 94.511719 C 293.0625 95.855469 289.6875 97.179688 288.160156 98.25 C 288.78125 95.425781 291.871094 93.875 295.140625 94.511719" fill="#231f20" fill-rule="evenodd"/></g><g id="change1_47"><path d="M 9.269531 99.496094 C 11.398438 101.441406 13.921875 102.984375 16.996094 103.984375 C 13.867188 105.882812 9.800781 102.652344 9.269531 99.496094" fill="#231f20" fill-rule="evenodd"/></g><g id="change1_48"><path d="M 438.445312 104.980469 C 435.390625 104.300781 433.53125 102.417969 430.222656 101.988281 C 429.925781 101.664062 430.125 101.597656 430.222656 101.242188 C 433.304688 101.167969 436.855469 102.738281 438.445312 104.980469" fill="#231f20" fill-rule="evenodd"/></g><g id="change1_49"><path d="M 437.699219 107.722656 C 435.703125 106.3125 433.199219 105.410156 430.722656 104.480469 C 433.449219 103.121094 437.703125 105.507812 437.699219 107.722656" fill="#231f20" fill-rule="evenodd"/></g><g id="change1_50"><path d="M 22.726562 105.230469 C 23.128906 105.160156 23.15625 105.464844 23.476562 105.480469 C 26.507812 107.410156 28.609375 110.839844 32.199219 112.457031 C 35.234375 113.824219 38.902344 113.507812 42.417969 114.949219 C 41.46875 116.511719 39.078125 115.453125 37.679688 115.199219 C 30.503906 113.898438 25.917969 110.160156 22.726562 105.230469" fill="#231f20" fill-rule="evenodd"/></g><g id="change1_51"><path d="M 358.445312 105.730469 C 358.777344 105.730469 359.109375 105.730469 359.441406 105.730469 C 359.507812 107.261719 360.835938 109.265625 359.9375 110.214844 C 358.824219 109.28125 357.925781 106.816406 358.445312 105.730469" fill="#231f20" fill-rule="evenodd"/></g><g id="change1_52"><path d="M 272.707031 106.476562 C 273.417969 107.964844 270.050781 109.609375 267.972656 109.964844 C 268.414062 107.664062 271.417969 107.925781 272.707031 106.476562" fill="#231f20" fill-rule="evenodd"/></g><g id="change1_53"><path d="M 437.949219 109.714844 C 436.121094 110.316406 433.953125 107.335938 430.972656 107.472656 C 430.972656 107.222656 430.972656 106.976562 430.972656 106.726562 C 433.921875 106.121094 436.542969 107.949219 437.949219 109.714844" fill="#231f20" fill-rule="evenodd"/></g><g id="change1_54"><path d="M 277.195312 106.726562 C 275.148438 109.1875 271.046875 112.179688 267.722656 111.710938 C 270.835938 110.003906 273.566406 107.917969 277.195312 106.726562" fill="#231f20" fill-rule="evenodd"/></g><g id="change1_55"><path d="M 22.976562 106.976562 C 24.53125 109.742188 27.59375 111 29.457031 113.453125 C 26.40625 112.394531 22.058594 110.390625 22.976562 106.976562" fill="#231f20" fill-rule="evenodd"/></g><g id="change1_56"><path d="M 60.859375 107.472656 C 63.449219 108.871094 67.460938 108.847656 69.832031 110.464844 C 66.511719 110.910156 62.476562 110.105469 60.859375 107.472656" fill="#231f20" fill-rule="evenodd"/></g><g id="change1_57"><path d="M 374.144531 108.21875 C 376.207031 109.84375 380.617188 109.648438 382.617188 109.964844 C 381.199219 112.515625 373.6875 110.695312 374.144531 108.21875" fill="#231f20" fill-rule="evenodd"/></g><g id="change1_58"><path d="M 287.910156 108.46875 C 286.429688 111.347656 283.21875 112.996094 280.433594 114.699219 C 277.722656 116.359375 274.546875 118.707031 270.964844 118.441406 C 276.980469 115.484375 282.4375 111.96875 287.910156 108.46875" fill="#231f20" fill-rule="evenodd"/></g><g id="change1_59"><path d="M 280.433594 108.71875 C 278.761719 111.269531 275.714844 113.234375 272.460938 114.949219 C 270.835938 115.804688 268.097656 117.269531 267.226562 115.199219 C 273.3125 114.726562 275.664062 110.511719 280.433594 108.71875" fill="#231f20" fill-rule="evenodd"/></g><g id="change1_60"><path d="M 395.828125 109.714844 C 399.777344 118.898438 413.710938 119.605469 425.738281 117.441406 C 425.191406 118.492188 423.675781 118.953125 422.496094 119.1875 C 412.015625 121.246094 397.347656 119.285156 395.828125 109.714844" fill="#231f20" fill-rule="evenodd"/></g><g id="change1_61"><path d="M 47.402344 112.457031 C 53.03125 118.941406 60.898438 126.800781 72.074219 127.660156 C 75.921875 127.957031 80.261719 126.984375 83.042969 127.910156 C 74.945312 130.824219 66.902344 128.71875 61.109375 125.667969 C 54.972656 122.433594 49.636719 119.34375 47.402344 112.457031" fill="#231f20" fill-rule="evenodd"/></g><g id="change1_62"><path d="M 417.511719 113.953125 C 416.894531 116.175781 410.246094 115.574219 409.785156 113.703125 C 411.410156 113.777344 415.632812 114.070312 417.511719 113.953125" fill="#231f20" fill-rule="evenodd"/></g><g id="change1_63"><path d="M 463.871094 113.703125 C 464.273438 113.632812 464.296875 113.9375 464.617188 113.953125 C 464.828125 117.097656 461.917969 119.628906 458.136719 120.183594 C 455.851562 120.519531 452.253906 120.71875 450.910156 119.1875 C 456.875 119.007812 462.558594 118.539062 463.871094 113.703125" fill="#231f20" fill-rule="evenodd"/></g><g id="change1_64"><path d="M 395.578125 114.449219 C 400.597656 121.621094 412.417969 125.414062 422.246094 120.433594 C 421.496094 123.371094 415.976562 124.167969 412.777344 124.421875 C 405.074219 125.023438 398.472656 120.070312 395.332031 115.449219 C 395.226562 114.929688 395.5 114.789062 395.578125 114.449219" fill="#231f20" fill-rule="evenodd"/></g><g id="change1_65"><path d="M 409.285156 115.199219 C 412.226562 116.53125 416.929688 116.3125 420.503906 115.695312 C 418.910156 118.113281 410.199219 118.464844 409.285156 115.199219" fill="#231f20" fill-rule="evenodd"/></g><g id="change1_66"><path d="M 440.441406 116.195312 C 441.9375 118.519531 435.128906 119.667969 434.960938 117.191406 C 436.824219 117.652344 439 116.917969 440.441406 116.195312" fill="#231f20" fill-rule="evenodd"/></g><g id="change1_67"><path d="M 351.964844 116.445312 C 352.128906 116.445312 352.296875 116.445312 352.460938 116.445312 C 350.613281 119.246094 346.296875 121.226562 341.992188 122.179688 C 337.945312 123.074219 332.828125 123.503906 329.035156 122.179688 C 331.085938 121.042969 333.789062 121.867188 336.261719 121.679688 C 342.160156 121.230469 347.996094 119.097656 351.714844 116.445312 C 351.796875 116.445312 351.882812 116.445312 351.964844 116.445312" fill="#231f20" fill-rule="evenodd"/></g><g id="change1_68"><path d="M 133.636719 116.945312 C 133.886719 116.945312 134.136719 116.945312 134.382812 116.945312 C 135.582031 120.316406 137.824219 122.640625 139.117188 125.914062 C 135.667969 124.550781 134.679688 120.71875 133.636719 116.945312" fill="#231f20" fill-rule="evenodd"/></g><g id="change1_69"><path d="M 444.679688 117.191406 C 443.738281 120.226562 437.972656 122.066406 434.960938 119.933594 C 435.667969 119.164062 437.226562 119.808594 438.199219 119.683594 C 440.621094 119.378906 442.542969 117.589844 444.679688 117.191406" fill="#231f20" fill-rule="evenodd"/></g><g id="change1_70"><path d="M 131.644531 117.691406 C 133.3125 118.347656 133.175781 120.8125 134.136719 122.179688 C 132.765625 122.136719 130.882812 119.941406 131.644531 117.691406" fill="#231f20" fill-rule="evenodd"/></g><g id="change1_71"><path d="M 78.058594 122.425781 C 73.3125 124.839844 65.386719 121.886719 62.355469 118.6875 C 62.316406 118.398438 62.410156 118.246094 62.605469 118.191406 C 66.171875 120.195312 71.613281 122.472656 78.058594 122.425781" fill="#231f20" fill-rule="evenodd"/></g><g id="change1_72"><path d="M 235.820312 119.683594 C 235.9375 122.234375 228.835938 121.535156 228.84375 120.183594 C 231.097656 118.996094 234.347656 120.835938 235.820312 119.683594" fill="#231f20" fill-rule="evenodd"/></g><g id="change1_73"><path d="M 307.601562 119.683594 C 309.621094 121.238281 311.53125 122.898438 312.335938 125.667969 C 309.90625 124.648438 307.738281 122.175781 307.601562 119.683594" fill="#231f20" fill-rule="evenodd"/></g><g id="change1_74"><path d="M 352.214844 119.933594 C 348.578125 124.449219 338.554688 126.113281 333.273438 124.667969 C 339.589844 123.601562 347.566406 123.324219 351.714844 119.683594 C 352.003906 119.644531 352.15625 119.742188 352.214844 119.933594" fill="#231f20" fill-rule="evenodd"/></g><g id="change1_75"><path d="M 446.671875 120.183594 C 447.246094 120.109375 446.949219 120.902344 447.421875 120.929688 C 445.28125 126.101562 433.101562 128.429688 429.226562 123.175781 C 435.066406 125.894531 443.570312 124.421875 446.671875 120.183594" fill="#231f20" fill-rule="evenodd"/></g><g id="change1_76"><path d="M 313.832031 120.683594 C 318.128906 124.695312 325.148438 126.742188 331.277344 128.160156 C 323.1875 127.941406 316.453125 126.367188 313.832031 120.683594" fill="#231f20" fill-rule="evenodd"/></g><g id="change1_77"><path d="M 275.449219 122.675781 C 274.550781 125.265625 272.820312 127.023438 270.214844 127.910156 C 270.730469 125.265625 273.648438 125.03125 274.453125 122.675781 C 274.785156 122.675781 275.117188 122.675781 275.449219 122.675781" fill="#231f20" fill-rule="evenodd"/></g><g id="change1_78"><path d="M 351.464844 123.175781 C 349.589844 125.609375 343.992188 127.542969 339.75 127.660156 C 338.835938 127.683594 337.332031 128.015625 336.761719 126.914062 C 342.539062 126.542969 346.9375 124.792969 351.464844 123.175781" fill="#231f20" fill-rule="evenodd"/></g><g id="change1_79"><path d="M 224.355469 124.917969 C 232.363281 128.261719 246.535156 126.804688 252.269531 123.921875 C 249.882812 126.714844 242.222656 128.234375 235.074219 127.910156 C 231.007812 127.726562 226.164062 127.5625 224.355469 124.917969" fill="#231f20" fill-rule="evenodd"/></g><g id="change1_80"><path d="M 283.175781 127.410156 C 278.542969 130.265625 274.261719 135.277344 268.222656 138.375 C 262.585938 141.269531 255.660156 144.417969 248.53125 145.105469 C 238.320312 146.097656 227.582031 146.675781 219.371094 144.109375 C 214.316406 142.53125 209.664062 139.738281 205.664062 136.882812 C 204.492188 136.046875 202.675781 135.355469 202.675781 133.640625 C 209.984375 137.691406 216.800781 142.980469 227.597656 144.109375 C 239.65625 145.371094 250.835938 143.558594 260.496094 140.121094 C 270.140625 136.691406 276.675781 130.097656 284.171875 125.667969 C 282.128906 128.5 285.417969 124.417969 286.414062 123.675781 C 286.828125 125.777344 284.933594 127.703125 283.675781 129.15625 C 282.394531 130.632812 280.824219 132.101562 279.4375 133.394531 C 276.628906 136.003906 273.230469 138.996094 269.96875 141.121094 C 246.578125 156.328125 203.03125 148.632812 190.960938 127.910156 C 202.488281 140.070312 219.914062 148.617188 245.042969 147.847656 C 250.261719 147.6875 258.320312 144.863281 262.988281 142.863281 C 268.476562 140.511719 273.023438 136.886719 276.695312 133.890625 C 278.753906 132.214844 281.425781 129.386719 282.925781 127.410156 C 283.011719 127.410156 283.09375 127.410156 283.175781 127.410156" fill="#231f20" fill-rule="evenodd"/></g><g id="change1_81"><path d="M 190.960938 124.421875 C 194.171875 126.941406 196.929688 129.914062 199.933594 132.644531 C 196.554688 131.699219 193.355469 128.421875 190.960938 125.667969 C 190.960938 125.25 190.960938 124.835938 190.960938 124.421875" fill="#231f20" fill-rule="evenodd"/></g><g id="change1_82"><path d="M 278.6875 124.917969 C 278.976562 125.007812 279.320312 125.359375 278.9375 125.417969 C 276.136719 129.761719 272.058594 132.828125 266.226562 134.140625 C 270.378906 131.066406 275.15625 128.613281 278.6875 124.917969" fill="#231f20" fill-rule="evenodd"/></g><g id="change1_83"><path d="M 142.859375 125.417969 C 150.4375 130.234375 156.890625 136.484375 170.273438 136.136719 C 172.625 136.074219 174.96875 135.140625 178.25 135.136719 C 176.453125 136.605469 173.308594 137.507812 170.773438 137.628906 C 158.472656 138.230469 148.863281 132.582031 143.105469 126.164062 C 142.816406 126.125 142.898438 125.710938 142.859375 125.417969" fill="#231f20" fill-rule="evenodd"/></g><g id="change1_84"><path d="M 152.578125 125.417969 C 152.828125 125.417969 153.074219 125.417969 153.324219 125.417969 C 156.808594 127.371094 162.394531 128.773438 167.53125 129.15625 C 169.042969 129.269531 171.410156 128.539062 172.265625 130.152344 C 164.617188 130.886719 157.453125 129.257812 152.578125 126.414062 C 152.578125 126.082031 152.578125 125.75 152.578125 125.417969" fill="#231f20" fill-rule="evenodd"/></g><g id="change1_85"><path d="M 301.367188 126.414062 C 298.894531 127.894531 295.6875 127.316406 292.648438 127.160156 C 293.984375 125.292969 299.003906 126.585938 301.367188 126.414062" fill="#231f20" fill-rule="evenodd"/></g><g id="change1_86"><path d="M 262.488281 126.664062 C 262.882812 127.691406 260.972656 128.257812 259.996094 128.65625 C 249.761719 132.835938 235.523438 133.136719 223.859375 130.402344 C 220.890625 129.707031 217.574219 129.046875 215.882812 127.160156 C 227.636719 131.992188 250.597656 132.785156 262.488281 126.664062" fill="#231f20" fill-rule="evenodd"/></g><g id="change1_87"><path d="M 138.621094 127.160156 C 141.585938 126.921875 141.230469 130.5625 144.105469 131.148438 C 142.480469 131.542969 139.503906 129.148438 138.621094 127.160156" fill="#231f20" fill-rule="evenodd"/></g><g id="change1_88"><path d="M 201.925781 127.660156 C 203.945312 129.296875 206.625 130.273438 208.15625 132.394531 C 206.074219 132.871094 202.132812 129.871094 201.925781 127.660156" fill="#231f20" fill-rule="evenodd"/></g><g id="change1_89"><path d="M 300.125 128.410156 C 298.25 130.433594 292.679688 131.453125 289.90625 129.65625 C 291.734375 128.453125 297.425781 129.738281 299.625 128.160156 C 299.914062 128.117188 300.066406 128.214844 300.125 128.410156" fill="#231f20" fill-rule="evenodd"/></g><g id="change1_90"><path d="M 140.367188 136.382812 C 139.683594 137.9375 137.5625 138.191406 136.128906 138.875 C 131.894531 140.890625 126.765625 142.472656 121.671875 142.863281 C 107.453125 143.960938 93.722656 138.609375 88.773438 129.65625 C 89.503906 129.214844 90.589844 130.78125 91.515625 131.648438 C 97.945312 137.679688 108.117188 141.714844 120.179688 141.367188 C 127.964844 141.144531 134.113281 137.765625 140.367188 136.382812" fill="#231f20" fill-rule="evenodd"/></g><g id="change1_91"><path d="M 130.394531 129.65625 C 130.617188 129.765625 130.84375 129.871094 130.894531 130.152344 C 130.160156 132.796875 121.175781 132.394531 120.925781 130.902344 C 124.136719 130.265625 127.6875 131.589844 130.394531 129.65625" fill="#231f20" fill-rule="evenodd"/></g><g id="change1_92"><path d="M 158.808594 131.398438 C 162.253906 133.089844 169.84375 134.089844 175.007812 133.394531 C 173.824219 135.347656 170.320312 135.058594 167.78125 134.890625 C 163.984375 134.632812 159.152344 133.699219 158.0625 131.398438 C 158.351562 131.441406 158.503906 131.34375 158.558594 131.148438 C 159.003906 131.078125 159.070312 131.386719 158.808594 131.398438" fill="#231f20" fill-rule="evenodd"/></g><g id="change1_93"><path d="M 133.136719 132.644531 C 131.851562 134.664062 127.125 135.464844 124.164062 135.386719 C 122.488281 135.34375 120.753906 135.03125 119.429688 134.390625 C 120.863281 133.386719 123.636719 134.355469 126.160156 134.140625 C 128.75 133.921875 131.136719 132.828125 133.136719 132.644531" fill="#231f20" fill-rule="evenodd"/></g><g id="change1_94"><path d="M 210.148438 134.390625 C 217.714844 137.085938 227.011719 141.460938 236.820312 141.121094 C 244.171875 140.863281 252.40625 139.207031 258.75 136.632812 C 260.65625 135.859375 262.5625 133.742188 264.980469 134.890625 C 254.765625 140.773438 237.976562 144.886719 223.109375 140.621094 C 217.984375 139.148438 213.496094 137.566406 210.398438 135.136719 C 210.109375 135.097656 210.191406 134.683594 210.148438 134.390625" fill="#231f20" fill-rule="evenodd"/></g><g id="change1_95"><path d="M 222.613281 134.890625 C 222.617188 134.648438 222.917969 134.695312 223.109375 134.640625 C 225.289062 135.625 227.949219 136.234375 230.589844 136.882812 C 233.09375 137.496094 235.953125 137.738281 237.816406 139.125 C 233.78125 138.78125 223.21875 137.585938 222.613281 134.890625" fill="#231f20" fill-rule="evenodd"/></g><g clip-path="url(#a)" id="change1_1"><path d="M 116.191406 47.160156 C 106.433594 46.5625 98.386719 50.164062 92.511719 52.390625 C 88.960938 54.738281 84.757812 58.597656 81.546875 62.113281 C 81.019531 63.261719 78.121094 66.09375 77.558594 68.839844 C 80.359375 69.945312 83.273438 70.9375 84.289062 73.828125 C 80.148438 72.949219 76.566406 70.015625 71.078125 69.589844 C 63.320312 68.988281 56.558594 72.820312 52.386719 75.820312 C 52.269531 77.535156 49.277344 78.523438 49.148438 81.054688 C 51.972656 82.226562 56.082031 83.410156 55.875 86.785156 C 53.953125 86.738281 52.789062 84.804688 50.890625 83.796875 C 43.945312 80.113281 33.042969 82.433594 29.207031 87.285156 C 35.382812 81.988281 52.300781 80.886719 55.875 89.277344 C 51.144531 86.128906 44.996094 83.054688 38.429688 84.792969 C 35.277344 85.625 30.980469 87.523438 28.710938 89.277344 C 27.199219 90.445312 26.765625 92.613281 24.972656 93.015625 C 25.351562 91.984375 25.582031 90.804688 26.21875 90.027344 C 24.144531 91.375 22.335938 93.699219 21.730469 95.757812 C 18.871094 95.683594 18.113281 98.515625 15.25 99 C 12.757812 99.417969 10.277344 98.914062 8.523438 96.753906 C 7.804688 95.769531 9.515625 94.839844 8.769531 93.765625 C 7.859375 93.929688 7.816406 93.226562 7.027344 93.265625 C 5.691406 94.027344 5.308594 95.542969 5.03125 96.753906 C 3.339844 96.488281 4.472656 93.882812 4.285156 93.265625 C -0.332031 96.175781 3.621094 101.820312 6.777344 104.480469 C 10.125 107.308594 15.296875 108.246094 18.738281 108.46875 C 18.472656 105.960938 17.078125 103.230469 18.988281 101.492188 C 21.230469 102.785156 19.890625 105.488281 20.484375 107.222656 C 21.128906 109.109375 22.726562 111.476562 23.972656 112.457031 C 28.429688 115.972656 36.324219 118.664062 43.414062 116.695312 C 42.5 114.40625 40.726562 109.53125 42.914062 107.222656 C 44.769531 108.695312 43.605469 110.886719 44.160156 113.207031 C 44.460938 114.445312 45.558594 116.457031 46.652344 117.941406 C 53.222656 126.816406 70.039062 134.007812 84.039062 129.40625 C 83.316406 127.488281 80.65625 120.46875 83.539062 119.1875 C 84.492188 122.667969 84.269531 126.035156 85.785156 128.65625 C 86.148438 129.207031 87.117188 129.152344 87.28125 129.902344 C 88.777344 134.441406 93.140625 138.386719 98.742188 140.621094 C 104.214844 142.804688 110.105469 145.019531 116.6875 145.355469 C 128.832031 145.980469 135.578125 141.394531 142.609375 137.132812 C 141.9375 136.308594 141.222656 135.527344 140.117188 135.136719 C 125.800781 141.347656 100.316406 141.691406 92.511719 130.402344 C 102.375 139.328125 125.902344 139.734375 139.367188 134.390625 C 138.578125 132.105469 134.640625 129.484375 135.382812 125.667969 C 137.949219 127.410156 138.789062 130.6875 140.863281 132.894531 C 145.695312 138.035156 154.460938 141.90625 163.792969 142.613281 C 173.703125 143.367188 180.90625 140.367188 186.722656 137.132812 C 188.234375 136.289062 190.90625 135.667969 190.710938 133.640625 C 184.714844 135.9375 178.066406 139.800781 170.523438 140.621094 C 162.480469 141.496094 154.636719 138.402344 149.585938 135.636719 C 147.515625 134.5 145.230469 133.058594 144.105469 131.398438 C 150.609375 134.664062 157.472656 138.894531 167.03125 139.125 C 174.496094 139.304688 181.164062 136.261719 186.972656 133.640625 C 187.671875 133.261719 188.894531 133.40625 189.714844 133.144531 C 188.824219 131.539062 187.757812 130.117188 186.472656 128.90625 C 186.652344 127.257812 183.832031 126.839844 185.226562 124.667969 C 188.683594 127.292969 190.429688 131.367188 193.699219 134.640625 C 201.101562 142.039062 212.269531 147.933594 224.355469 150.589844 C 226.796875 151.125 229.863281 151.730469 232.582031 151.835938 C 253.015625 152.621094 272.40625 144.023438 282.675781 132.644531 C 283.199219 131.863281 282.449219 131.253906 282.925781 130.652344 C 286.726562 129.941406 287.222656 122.703125 290.902344 124.917969 C 289.691406 127.863281 286.992188 129.316406 285.917969 132.394531 C 293.796875 136.742188 305.878906 132.105469 309.097656 127.160156 C 304.964844 129.328125 298.628906 133.230469 292.894531 132.894531 C 291.480469 132.8125 288.855469 132.429688 288.660156 131.648438 C 296.589844 132.214844 303.097656 129.34375 307.851562 125.914062 C 307.015625 123.761719 304.097656 121.308594 305.109375 118.9375 C 307.734375 120.980469 308.078125 126.011719 311.835938 126.164062 C 315.988281 134.5 334.835938 134.78125 346.230469 132.148438 C 351.457031 130 356.964844 127.148438 361.683594 123.921875 C 362.875 123.109375 366.0625 121.929688 364.675781 120.183594 C 363.679688 120.902344 362.824219 121.898438 361.683594 122.675781 C 356.039062 126.527344 348.148438 130.894531 340.25 132.148438 C 332.253906 133.414062 319.84375 131.996094 316.074219 126.414062 C 331.074219 135.730469 353.90625 128.769531 363.925781 119.4375 C 363.40625 118.941406 362.320312 118.207031 361.683594 117.191406 C 360.613281 115.488281 358.972656 112.144531 360.6875 111.210938 C 362.910156 112.777344 362.589844 115.160156 364.175781 117.191406 C 364.929688 118.15625 367.097656 119.664062 368.164062 120.433594 C 374.660156 125.117188 388.339844 125.65625 394.085938 120.183594 C 393.132812 118.625 390.167969 114.957031 392.339844 113.453125 C 394.199219 114.734375 394.148438 117.25 395.578125 119.1875 C 401.164062 126.75 414.976562 128.640625 423.992188 122.675781 C 426.0625 126.976562 433.625 129.566406 439.445312 128.160156 C 443.769531 127.113281 446.574219 123.84375 449.164062 121.929688 C 457.183594 122.941406 466.699219 120.21875 464.617188 112.707031 C 463.332031 113.027344 462.527344 111.988281 461.875 112.457031 C 461.988281 113.648438 461.988281 113.507812 461.875 114.699219 C 453.796875 120.503906 447.679688 112.1875 447.171875 104.234375 C 445.574219 103.707031 442.585938 101.722656 441.9375 100.246094 C 442.929688 99.269531 445.410156 102.097656 444.679688 101.242188 C 441.089844 97.765625 434.628906 96.128906 428.230469 96.257812 C 432.433594 97.8125 436.660156 97.8125 439.941406 100.246094 C 443.089844 102.574219 446.523438 107.964844 447.917969 111.710938 C 448.433594 113.09375 449.253906 114.8125 448.914062 116.195312 C 447.660156 115.511719 446.601562 113.808594 447.667969 112.207031 C 443.179688 105.816406 438.898438 97.886719 428.230469 98.5 C 428.816406 101.109375 429.972656 105.734375 427.480469 106.726562 C 427.34375 103.808594 426.863281 101.109375 426.234375 99 C 425.65625 97.042969 425.472656 94.769531 424.738281 93.265625 C 420.707031 84.980469 409.523438 81.011719 397.574219 82.300781 C 399.65625 84.550781 400.191406 88.023438 401.3125 91.273438 C 402.21875 93.90625 404.667969 96.417969 403.804688 99 C 401.664062 97.664062 401.636719 95.046875 400.8125 93.265625 C 399.136719 89.636719 397.476562 85.542969 395.082031 82.550781 C 389.480469 75.550781 379.335938 68.941406 369.160156 67.84375 C 358.613281 66.707031 346.988281 70.128906 339.003906 74.824219 C 339.972656 76.425781 342 79.828125 340.5 81.550781 C 338.023438 78.761719 337.480469 75.140625 334.515625 72.582031 C 330.40625 69.027344 325.539062 66.335938 318.816406 66.597656 C 317.613281 66.644531 315.566406 66.21875 315.078125 67.597656 C 315.519531 68.40625 318.335938 67.730469 319.8125 67.84375 C 325.605469 68.289062 331.277344 70.722656 333.023438 75.320312 C 329.195312 71.28125 322.105469 68.609375 315.328125 69.089844 C 314.589844 72.089844 315.929688 77.171875 313.582031 78.5625 C 312.714844 74.761719 313.417969 70.441406 313.085938 66.847656 C 312.097656 56.273438 303.761719 47.335938 295.636719 42.671875 C 288.472656 38.558594 278.558594 34.058594 268.472656 35.195312 C 264.109375 33.808594 258.652344 34.777344 254.265625 35.695312 C 251.96875 36.175781 249.28125 37.652344 247.535156 36.191406 C 247.960938 34.082031 250.804688 34.371094 252.769531 33.949219 C 256.222656 33.207031 260.121094 32.542969 263.734375 32.203125 C 256.007812 19.992188 243.414062 12.648438 228.34375 7.78125 C 233.878906 6.894531 239.078125 10 243.296875 12.265625 C 251.933594 16.90625 260.054688 22.714844 264.484375 31.207031 C 264.667969 31.976562 263.800781 31.6875 263.984375 32.453125 C 265.5625 32.183594 266.253906 33.148438 266.726562 32.203125 C 264.144531 27.246094 261.164062 23.726562 257.503906 19.742188 C 253.035156 14.882812 249.152344 12.457031 242.800781 9.523438 C 231.742188 4.421875 217.246094 1.089844 202.425781 2.046875 C 181.171875 3.421875 164.210938 13.53125 153.824219 24.976562 C 156.722656 25.945312 161.777344 27.746094 160.800781 30.210938 C 154.582031 27.085938 146.644531 24.613281 137.871094 25.976562 C 135.859375 26.285156 133.441406 27.046875 131.644531 27.71875 C 122.933594 30.972656 116.042969 37.453125 112.449219 44.667969 C 117.300781 45.113281 121.628906 45.523438 125.410156 46.910156 C 127.816406 47.789062 131.230469 48.972656 131.394531 51.144531 C 126.808594 50.289062 122.058594 47.519531 116.191406 47.160156 Z M 74.816406 67.84375 C 81.78125 55.777344 93.65625 47.316406 109.710938 45.164062 C 116.34375 31.261719 130.101562 21.691406 150.835938 24.230469 C 165.832031 9.03125 187.074219 -2.722656 216.878906 0.550781 C 224.027344 1.335938 229.996094 2.277344 235.820312 4.289062 C 241.429688 6.226562 246.070312 9.140625 251.523438 11.519531 C 258.511719 17.324219 265.144531 23.488281 268.96875 32.453125 C 277.386719 33.164062 284.117188 34.453125 290.652344 37.6875 C 302.121094 43.367188 311.722656 50.792969 314.828125 64.605469 C 325.789062 63.066406 332.347656 67.769531 337.757812 72.582031 C 345.078125 68.847656 353.609375 65.878906 363.179688 65.351562 C 377.753906 64.550781 389.105469 72.777344 396.078125 80.804688 C 410.597656 77.589844 423.292969 83.921875 427.480469 94.265625 C 433.210938 93.785156 442.648438 95.730469 446.425781 99.25 C 450.351562 102.910156 448.996094 110.550781 453.652344 113.703125 C 455.519531 114.96875 457.644531 114.644531 459.882812 113.953125 C 460.632812 113.28125 458.957031 112.015625 459.882812 111.210938 C 461.558594 110.171875 464.238281 110.617188 466.113281 111.210938 C 470.414062 120.992188 458.492188 125.164062 449.910156 123.675781 C 448.800781 124.84375 447.578125 126.539062 445.925781 127.660156 C 439.652344 131.925781 427.203125 131.304688 423.492188 125.417969 C 415.441406 130.019531 400.910156 129.398438 395.828125 122.179688 C 389.457031 127.34375 374.484375 127.167969 367.417969 122.675781 C 357.941406 129.34375 347.054688 136.730469 329.53125 135.636719 C 322.4375 135.191406 314.855469 133.515625 311.089844 129.15625 C 305.628906 134.265625 292.960938 139.449219 284.921875 133.890625 C 274.042969 145.414062 256.261719 153.703125 234.824219 153.828125 C 226.433594 153.882812 217.777344 151.085938 210.898438 148.097656 C 203.679688 144.960938 197.367188 140.828125 192.703125 136.136719 C 181.695312 146.09375 158.023438 147.464844 144.851562 138.625 C 138.472656 142.058594 132.007812 146.285156 123.667969 147.351562 C 119.203125 147.921875 114.054688 147.128906 109.210938 146.105469 C 98.265625 143.789062 89.746094 139.714844 85.285156 131.148438 C 74.34375 135.269531 62.300781 131.777344 54.628906 126.914062 C 53.621094 126.273438 52.324219 125.148438 51.140625 125.667969 C 51.429688 123.601562 45.925781 121.4375 44.660156 118.441406 C 35.65625 121.820312 24.648438 116.953125 19.738281 110.464844 C 13.96875 111.011719 6.972656 107.726562 3.039062 103.484375 C 0.6875 100.953125 -1.910156 94.695312 2.042969 92.019531 C 4.863281 90.109375 8.4375 91.589844 10.765625 93.265625 C 11.160156 94.417969 10.9375 95.320312 10.515625 96.257812 C 14.308594 98.367188 16.011719 95.359375 19.238281 95.011719 C 24.625 86.765625 33.027344 78.378906 46.652344 80.058594 C 51.207031 72.003906 61.707031 65.90625 74.816406 67.84375" fill="#231f20" fill-rule="evenodd"/></g><g id="change1_96"><path d="M 155.070312 105.730469 C 155.027344 104.511719 157.589844 107.785156 158.558594 108.71875 C 152.761719 104.609375 146.472656 99.808594 134.382812 100.496094 C 130.828125 100.695312 127.675781 102.445312 124.414062 101.742188 C 125.597656 100.5625 128.777344 99.632812 131.394531 99.25 C 135.042969 98.714844 139.347656 98.742188 142.859375 99.25 C 147.980469 99.988281 151.46875 102.226562 154.820312 104.730469 C 154.789062 105.355469 154.347656 105.511719 155.070312 105.730469" fill="#231f20" fill-rule="evenodd"/></g><g id="change1_97"><path d="M 372.152344 109.964844 C 375.957031 111.8125 380.234375 113.183594 386.109375 112.957031 C 382.777344 116.058594 375.359375 112.238281 372.152344 111.460938 C 371.980469 111.320312 371.769531 110.496094 372.152344 109.964844" fill="#231f20" fill-rule="evenodd"/></g><g id="change1_98"><path d="M 166.785156 23.230469 C 170.683594 20.574219 176.539062 18.808594 181.738281 18.246094 C 181.050781 19.390625 179.382812 19.40625 178.25 19.742188 C 174.765625 20.773438 170.882812 22.238281 167.53125 23.730469 C 166.980469 23.867188 167.175781 23.253906 166.785156 23.230469" fill="#231f20" fill-rule="evenodd"/></g><g id="change1_99"><path d="M 243.296875 25.476562 C 241.800781 25.144531 239.078125 23.882812 237.816406 22.484375 C 237.300781 22.234375 235.71875 22.550781 235.074219 21.984375 C 235.074219 21.988281 235.390625 21.359375 235.074219 21.238281 C 234.796875 21.132812 235.210938 21.757812 234.824219 21.738281 C 233.382812 21.660156 231.003906 20.203125 228.59375 19.492188 C 222.121094 17.589844 215.222656 16.714844 208.15625 16.253906 C 212.671875 14.460938 217.929688 16.113281 222.363281 17 C 225.480469 17.625 228.441406 18.066406 231.085938 18.996094 C 233.0625 19.691406 234.554688 21.15625 236.820312 21.488281 C 237.042969 21.582031 237.027344 22.101562 236.820312 21.984375 C 238.894531 23.136719 240.398438 23.234375 243.296875 25.476562" fill="#231f20" fill-rule="evenodd"/></g><g id="change1_100"><path d="M 179.496094 21.738281 C 178.5 23.171875 176.390625 23.570312 174.757812 24.230469 C 173.054688 24.917969 171.371094 25.605469 169.773438 26.222656 C 170.179688 23.5 176.132812 22.175781 179.496094 21.738281" fill="#231f20" fill-rule="evenodd"/></g><g id="change1_101"><path d="M 226.601562 25.976562 C 221.335938 24.742188 214.382812 23.078125 207.410156 22.734375 C 213.890625 20.964844 222.101562 23.558594 227.097656 25.726562 C 227.140625 26.015625 227.042969 26.167969 226.847656 26.222656 C 226.402344 26.292969 226.339844 25.988281 226.601562 25.976562" fill="#231f20" fill-rule="evenodd"/></g><g id="change1_102"><path d="M 155.816406 25.226562 C 157.824219 21.347656 162.265625 19.066406 166.035156 16.753906 C 169.785156 14.449219 173.40625 11.609375 177.253906 9.523438 C 185.691406 6.628906 200.566406 2.261719 210.148438 5.785156 C 209.984375 5.785156 209.816406 5.785156 209.652344 5.785156 C 208.867188 5.367188 204.78125 5.894531 201.675781 6.035156 C 195.503906 6.316406 190.160156 7.085938 184.976562 8.527344 C 173.328125 11.773438 165.085938 19.371094 155.816406 25.226562" fill="#231f20" fill-rule="evenodd"/></g><g id="change1_103"><path d="M 222.363281 27.71875 C 219.597656 28.226562 215.363281 25.925781 211.148438 26.222656 C 210.511719 26.234375 210.84375 26.039062 210.898438 25.726562 C 214.199219 25.078125 220.027344 25.78125 222.363281 27.71875" fill="#231f20" fill-rule="evenodd"/></g><g id="change1_104"><path d="M 116.4375 42.421875 C 116.085938 39.992188 119.042969 38.683594 120.925781 37.191406 C 127.941406 31.621094 141.605469 24.503906 152.078125 31.457031 C 137.378906 26.796875 123.800781 35.136719 116.4375 42.421875" fill="#231f20" fill-rule="evenodd"/></g><g id="change1_105"><path d="M 209.652344 38.4375 C 194.253906 33.953125 169.894531 35.992188 160.304688 47.40625 C 159.542969 48.3125 159.484375 49.820312 157.8125 49.902344 C 158.257812 46.1875 162.460938 43.628906 166.035156 41.425781 C 176.480469 34.988281 197.050781 32.015625 209.652344 38.4375" fill="#231f20" fill-rule="evenodd"/></g><g id="change1_106"><path d="M 144.601562 38.933594 C 138.847656 39.199219 133.351562 41.332031 129.148438 42.421875 C 131.460938 40.269531 138.84375 36.703125 144.601562 38.933594" fill="#231f20" fill-rule="evenodd"/></g><g id="change1_107"><path d="M 114.945312 54.136719 C 107.46875 55.050781 100.738281 56.714844 95.503906 59.871094 C 98.949219 55.085938 106.871094 53.464844 114.945312 54.136719" fill="#231f20" fill-rule="evenodd"/></g><g id="change1_108"><path d="M 256.257812 66.101562 C 256.390625 65.222656 252.777344 64.515625 252.519531 63.609375 C 252.339844 62.976562 251.84375 63.1875 250.527344 62.609375 C 246.691406 60.929688 242.382812 59.242188 237.316406 58.871094 C 230.664062 58.390625 223.675781 59.632812 217.628906 60.117188 C 224.234375 56.394531 240.5625 56.976562 249.03125 60.367188 C 249.253906 60.460938 249.238281 60.980469 249.03125 60.867188 C 251.691406 62.328125 254.960938 63.339844 256.257812 66.101562" fill="#231f20" fill-rule="evenodd"/></g><g id="change1_109"><path d="M 133.886719 62.859375 C 130.285156 61.730469 124.707031 63.542969 120.925781 62.609375 C 122.246094 61.21875 125.910156 61.347656 128.402344 61.367188 C 130.566406 61.378906 133.367188 60.863281 133.886719 62.859375" fill="#231f20" fill-rule="evenodd"/></g><g id="change1_110"><path d="M 238.066406 63.359375 C 233.015625 61.386719 226.421875 62.664062 220.367188 62.859375 C 223.0625 61.320312 227.953125 60.675781 231.585938 60.867188 C 233.820312 60.984375 237.214844 61.421875 238.066406 63.359375" fill="#231f20" fill-rule="evenodd"/></g><g id="change1_111"><path d="M 91.265625 62.859375 C 87.890625 64.886719 85.5 69.214844 82.792969 71.085938 C 83.691406 67.558594 87.300781 63.316406 91.265625 62.859375" fill="#231f20" fill-rule="evenodd"/></g><g id="change1_112"><path d="M 235.324219 65.851562 C 232.070312 65.257812 225.972656 65.8125 223.359375 66.101562 C 225.015625 63.765625 234.171875 63.382812 235.324219 65.851562" fill="#231f20" fill-rule="evenodd"/></g><g id="change1_113"><path d="M 92.015625 67.347656 C 89.175781 68.742188 87.714844 71.519531 84.785156 72.828125 C 86.152344 70.113281 88.574219 67.160156 92.015625 67.347656" fill="#231f20" fill-rule="evenodd"/></g><g id="change1_114"><path d="M 372.402344 76.566406 C 369.996094 76.375 365.960938 75.714844 362.679688 75.570312 C 362.382812 75.242188 362.585938 75.179688 362.679688 74.824219 C 364.960938 74.863281 370.828125 73.890625 372.402344 76.566406" fill="#231f20" fill-rule="evenodd"/></g><g id="change1_115"><path d="M 394.085938 89.777344 C 389.675781 86.710938 387.234375 81.675781 381.621094 79.808594 C 381.46875 79.585938 381.320312 79.363281 381.621094 79.308594 C 387.863281 79.71875 390.867188 85.511719 394.085938 89.777344" fill="#231f20" fill-rule="evenodd"/></g><g id="change1_116"><path d="M 207.410156 81.800781 C 202.78125 79.179688 196.457031 76.535156 189.714844 76.816406 C 181.464844 77.160156 176.074219 80.433594 171.269531 84.292969 C 170.078125 85.25 168.789062 87.0625 167.03125 86.785156 C 172.34375 77.488281 191.960938 71.46875 203.671875 78.0625 C 205.0625 78.847656 206.585938 80.308594 207.410156 81.800781" fill="#231f20" fill-rule="evenodd"/></g><g id="change1_117"><path d="M 126.410156 88.78125 C 121.132812 83.714844 113.757812 78.910156 104.476562 78.8125 C 97.601562 78.738281 89.703125 80.710938 84.785156 84.792969 C 82.878906 86.375 82.417969 88.707031 79.800781 89.527344 C 79.835938 86.320312 82.921875 86.167969 83.789062 83.796875 C 88.804688 80.066406 96.105469 77.109375 104.226562 77.316406 C 114.367188 77.570312 122.730469 82.554688 126.410156 88.78125" fill="#231f20" fill-rule="evenodd"/></g><g id="change1_118"><path d="M 125.660156 98.75 C 125.164062 96.554688 128.769531 96.402344 130.394531 95.511719 C 129.121094 91.53125 127.617188 87.777344 125.160156 84.792969 C 115.949219 73.585938 94.511719 72.628906 83.539062 82.300781 C 82.667969 83.5625 81.347656 84.3125 80.300781 85.789062 C 79.09375 87.492188 78.773438 90.960938 75.816406 90.027344 C 80.449219 75.058594 103.4375 68.929688 118.683594 76.816406 C 125.835938 80.519531 130.128906 87.433594 132.640625 95.011719 C 141.273438 93.046875 149.339844 96.183594 154.570312 100.246094 C 157.285156 102.347656 161.433594 104.714844 160.304688 108.21875 C 158.726562 108.46875 158.191406 105.941406 157.8125 105.480469 C 155.746094 102.960938 149.355469 98.445312 144.851562 97.253906 C 140.019531 95.976562 134.242188 96.882812 130.894531 97.753906 C 129.214844 98.15625 127.292969 99.804688 125.660156 98.75" fill="#231f20" fill-rule="evenodd"/></g><g id="change1_119"><path d="M 115.441406 86.785156 C 115.242188 86.917969 115.039062 87.046875 114.695312 87.035156 C 109.8125 84.179688 101.96875 82.816406 95.003906 84.292969 C 91.027344 85.136719 87.925781 87.496094 85.035156 87.785156 C 85.929688 86.035156 88.449219 85.027344 90.519531 84.292969 C 97.921875 81.679688 108.75 81.816406 114.945312 86.289062 C 115.367188 86.195312 115.414062 86.480469 115.441406 86.785156" fill="#231f20" fill-rule="evenodd"/></g><g id="change1_120"><path d="M 108.960938 89.03125 C 108.417969 89.074219 108.167969 88.824219 108.214844 88.28125 C 104.851562 88.855469 100.382812 87.949219 96.5 89.277344 C 97.277344 87.050781 102.90625 86.539062 106.46875 87.285156 C 107.539062 87.507812 109.335938 87.675781 108.960938 89.03125" fill="#231f20" fill-rule="evenodd"/></g><g id="change1_121"><path d="M 108.714844 91.769531 C 106.347656 90.398438 101.359375 90.675781 99.742188 91.769531 C 100.488281 88.589844 107.832031 89.03125 108.714844 91.769531" fill="#231f20" fill-rule="evenodd"/></g><g id="change1_122"><path d="M 318.816406 97.753906 C 315.066406 96.324219 307.839844 94.140625 301.617188 95.261719 C 302.328125 93.277344 305.359375 93.652344 307.351562 93.765625 C 311.597656 94.007812 317.761719 94.875 318.816406 97.753906" fill="#231f20" fill-rule="evenodd"/></g><g id="change1_123"><path d="M 338.257812 108.21875 C 336.75 105.636719 336.414062 103.085938 334.515625 100.742188 C 328.167969 92.894531 317.582031 87.453125 303.863281 88.78125 C 297.746094 89.371094 291.160156 92.394531 287.660156 95.757812 C 286.007812 97.351562 285.492188 100.496094 282.429688 100.246094 C 281.578125 98.625 283.566406 97.511719 284.421875 96.507812 C 289.902344 90.070312 299.90625 85.730469 311.339844 86.785156 C 322.199219 87.789062 330.644531 92.664062 336.261719 99.996094 C 337.65625 101.816406 340.800781 105.671875 338.257812 108.21875" fill="#231f20" fill-rule="evenodd"/></g><g id="change1_124"><path d="M 335.765625 106.226562 C 332.699219 102.585938 329.394531 99.28125 324.546875 96.753906 C 322.371094 95.621094 320.238281 93.976562 318.316406 93.265625 C 311.300781 90.679688 304.320312 92.292969 297.382812 92.769531 C 299.980469 90.980469 304.15625 90.40625 307.601562 90.277344 C 314.992188 89.996094 320.523438 92.804688 325.796875 95.757812 C 330.113281 98.179688 335.078125 101.300781 335.765625 106.226562" fill="#231f20" fill-rule="evenodd"/></g><g id="change1_125"><path d="M 4.285156 98.75 C 6.855469 103.074219 12.605469 104.21875 16.996094 106.726562 C 13.234375 107.511719 3.355469 102.726562 4.285156 98.75" fill="#231f20" fill-rule="evenodd"/></g><g id="change1_126"><path d="M 62.605469 105.976562 C 64.742188 106.5 66.496094 107.402344 68.335938 108.21875 C 66.261719 108.632812 63.132812 107.945312 62.605469 105.976562" fill="#231f20" fill-rule="evenodd"/></g><g id="change1_127"><path d="M 140.863281 108.96875 C 138.75 108.25 135.691406 107.25 132.390625 107.972656 C 132.734375 105.316406 140.261719 106.539062 140.863281 108.96875" fill="#231f20" fill-rule="evenodd"/></g><g id="change1_128"><path d="M 32.699219 108.21875 C 31.894531 107.03125 29.871094 107.058594 29.707031 105.230469 C 32.886719 107.03125 35.796875 108.074219 39.925781 109.21875 C 39.90625 110.113281 38.886719 110.003906 37.929688 109.964844 C 38.3125 110.582031 39.480469 110.410156 39.425781 111.460938 C 35.78125 111.03125 33.132812 109.613281 30.703125 107.972656 C 31.292969 107.160156 32.113281 108.203125 32.699219 108.21875" fill="#231f20" fill-rule="evenodd"/></g><g id="change1_129"><path d="M 365.921875 114.449219 C 366.210938 114.410156 366.363281 114.507812 366.421875 114.699219 C 369.867188 117.164062 373.945312 120.316406 379.878906 120.683594 C 384.285156 120.953125 388.550781 119.71875 392.589844 118.6875 C 390.40625 121.992188 384.835938 122.324219 380.625 122.179688 C 374.21875 121.957031 368.046875 118.847656 365.921875 114.449219" fill="#231f20" fill-rule="evenodd"/></g><g id="change1_130"><path d="M 368.414062 111.710938 C 374.371094 114.394531 381.945312 117.140625 389.347656 116.195312 C 388.511719 117.46875 386.488281 117.644531 385.113281 117.691406 C 379.050781 117.898438 371.777344 114.597656 368.414062 111.710938" fill="#231f20" fill-rule="evenodd"/></g><g id="change1_131"><path d="M 75.566406 120.183594 C 72.59375 121.640625 68.808594 119.644531 66.84375 118.441406 C 66.773438 118.035156 67.078125 118.011719 67.089844 117.691406 C 69.210938 118.25 72.65625 119.585938 75.566406 120.183594" fill="#231f20" fill-rule="evenodd"/></g><g id="change1_132"><path d="M 102.980469 118.6875 C 105.863281 119.542969 108.519531 120.625 111.703125 121.179688 C 109.320312 123.058594 105.796875 120.292969 103.230469 119.933594 C 103.332031 119.332031 102.773438 119.394531 102.980469 118.6875" fill="#231f20" fill-rule="evenodd"/></g><g id="change1_133"><path d="M 55.378906 117.191406 C 62.660156 121.289062 70.164062 125.167969 81.046875 125.667969 C 80.835938 127.214844 78.308594 126.714844 77.308594 126.664062 C 69.15625 126.246094 60.652344 121.828125 55.625 117.941406 C 55.335938 117.898438 55.414062 117.484375 55.378906 117.191406" fill="#231f20" fill-rule="evenodd"/></g><g id="change1_134"><path d="M 224.105469 121.679688 C 228.492188 123.558594 235.957031 124.039062 241.054688 122.425781 C 237.773438 126.179688 228.382812 124.605469 224.355469 122.675781 C 224.164062 122.453125 224.089844 122.113281 224.105469 121.679688" fill="#231f20" fill-rule="evenodd"/></g><g id="change1_135"><path d="M 94.257812 120.929688 C 98.453125 125.390625 106.742188 126.757812 113.449219 127.910156 C 107.859375 129.589844 99.988281 126.269531 95.753906 123.425781 C 95.507812 122.367188 94.570312 122.386719 94.257812 120.929688" fill="#231f20" fill-rule="evenodd"/></g><g id="change1_136"><path d="M 100.988281 120.683594 C 104.3125 122.382812 109.027344 123.601562 112.699219 124.171875 C 108.589844 125.515625 101.671875 123 100.988281 120.683594" fill="#231f20" fill-rule="evenodd"/></g></g></svg>