<?xml version="1.0" encoding="UTF-8" standalone="no"?><svg xmlns="http://www.w3.org/2000/svg" xmlns:xlink="http://www.w3.org/1999/xlink" fill="#ffffff" height="227.9" preserveAspectRatio="xMidYMid meet" version="1" viewBox="0.0 0.0 499.9 227.9" width="499.9" zoomAndPan="magnify"><g><g id="change1_1"><path d="M86.5,118.8C86.5,118.8,21,70.6,0,0c44.6,72.9,146.2,132,205.3,150.4c8.1,2.5,14.7,8,19.6,14.9 c5.5,7.7,12.9,18.7,12.9,18.7s8.8,14-4.3,31.4c-0.1-12.1-8.5-16.7-8.5-16.7c0.4,0.2-5.7,18-19.5,23.5c1.4-4.1-3.3-23-6.2-25.5 c-3,13.1-14.9,27.2-32.1,31.2c8.5-17.6,7.5-28,8.2-33.8c-11.1,22.2-42.3,28.8-56.3,27.5c16.5-8.1,31.8-28.9,31.1-32.9 c-7.8,10.7-52.8,26.1-83.9,13.1c26.1,0.4,54.7-16.2,57.8-23.6c-26,5.3-63.4,6.2-96.3-12.7c34.1,8.9,72.7-2.8,72.7-2.8 S42.7,167,9.1,111.3c41,32,80.8,33.3,80.8,33.3S20.8,122.3,3.5,58.5C42.9,105.6,86.5,118.8,86.5,118.8z" fill="inherit"/><path d="M413.4,118.8c0,0,65.6-48.2,86.5-118.8c-44.6,72.9-146.2,132-205.3,150.4c-8.1,2.5-14.7,8-19.6,14.9 c-5.5,7.7-12.9,18.7-12.9,18.7s-8.8,14,4.3,31.4c0.1-12.1,8.5-16.7,8.5-16.7c-0.4,0.2,5.7,18,19.5,23.5c-1.4-4.1,3.3-23,6.2-25.5 c3,13.1,14.9,27.2,32.1,31.2c-8.5-17.6-7.5-28-8.2-33.8c11.1,22.2,42.3,28.8,56.3,27.5c-16.5-8.1-31.8-28.9-31.1-32.9 c7.8,10.7,52.8,26.1,83.9,13.1c-26.1,0.4-54.7-16.2-57.8-23.6c26,5.3,63.4,6.2,96.3-12.7c-34.1,8.9-72.7-2.8-72.7-2.8 s57.8,4.4,91.4-51.3c-41,32-80.8,33.3-80.8,33.3s69.1-22.3,86.4-86.1C457,105.6,413.4,118.8,413.4,118.8z" fill="inherit"/></g></g></svg>