<?xml version="1.0" encoding="UTF-8"?><svg xmlns="http://www.w3.org/2000/svg" xmlns:xlink="http://www.w3.org/1999/xlink" height="213.7" preserveAspectRatio="xMidYMid meet" version="1.0" viewBox="11.7 93.1 527.4 213.7" width="527.4" zoomAndPan="magnify"><g id="change1_1"><path clip-rule="evenodd" d="m531.1 179.15c-6 5.733-15.133 12.233-27.399 19.5-12.267 7.3-34.45 14.433-66.55 21.4 35.366-13.267 49.566-20.25 42.6-20.95l-36.4 4.25c25.667-6.266 42.717-10.899 51.15-13.899 16.999-5.868 29.199-9.301 36.599-10.301zm-28.05-7.25c-7.967 5.7-26.45 14.4-55.45 26.1 16.567-7.967 29.284-15.383 38.15-22.25 8.7-6.7 12.333-10.633 10.9-11.8-1.434-1.133-14.351 2.367-38.75 10.5 30.533-12.4 48.449-19.883 53.75-22.45 8.566-4.133 16.333-7.283 23.3-9.45-9.7 11.567-20.334 21.35-31.9 29.35zm-51.15-1.7c-4.267 10.4-12.4 19.45-24.4 27.15-12.134 7.567-27.767 14.284-46.9 20.15 13.7-6.7 29.267-16.267 46.7-28.7-14 3.867-25.434 7.083-34.3 9.65 8.866-3.867 19.3-8.217 31.3-13.05 11.967-5 21.167-10.067 27.6-15.2zm19.25 59.3c-4 0.267-17.551-0.384-40.65-1.95 36.533-3.566 58.017-5.983 64.45-7.25 9.399-1.733 17.75-2.733 25.05-3-12.566 8.566-25.35 15.134-38.35 19.7-11.4 4.267-29.317 7.333-53.75 9.2 21.566-5.134 35.133-9.283 40.699-12.45 5.701-3 6.551-4.417 2.551-4.25zm-59.5-4.7c-12.567 6.834-28.551 12.601-47.95 17.3 14.133-5.833 30.267-14.383 48.399-25.649-14.3 2.833-25.933 5.316-34.899 7.45 9.133-3.267 19.767-6.967 31.899-11.101 12.267-4.3 21.75-8.8 28.45-13.5-4.699 10.134-13.332 18.634-25.899 25.5zm33.6 63.15l9.85 3.85c-5.566 2.434-13.133 3.717-22.699 3.851-9.7 0-29.034-2.934-58-8.801 27.699 3.434 45.466 4.217 53.3 2.351 2.434-0.7 2.583-1.4 0.45-2.101-7-3-18.634-6.5-34.9-10.5 6 1.267 14.566 3.117 25.7 5.551 11.699 2.432 20.466 4.366 26.299 5.799zm-32.1-31.7c30.966 0.3 58.583-1.417 82.85-5.15-12.134 8.7-24.2 14.767-36.2 18.2-15.7 4.434-37.533 5.15-65.5 2.15 31.4-1.867 51.816-5.5 61.25-10.9-5.434-0.866-19.567-2.3-42.4-4.3zm-44.1-27.6c-3.133 4.699-14.7 9.267-34.7 13.699 14.434-4.3 23.15-8.366 26.15-12.199l-14.8 0.85c5.3-1.866 13.8-3.733 25.5-5.6-0.733 0.734-1.45 1.817-2.15 3.25zm9.85-20.55c-2.867 4.834-14.15 10.101-33.851 15.801 14.134-5.134 22.566-9.7 25.3-13.7l-14.6 1.75c5.167-2.167 13.517-4.533 25.05-7.101-0.566 0.867-1.199 1.95-1.899 3.25zm-43.9 59.5c8.134-0.433 21.7-0.583 40.7-0.449 3.566 0 6.7-0.067 9.399-0.2-5.866 4.566-13.366 7.85-22.5 9.85-11.699 2.566-26.033 3.351-43 2.351 12.834-1.434 27.167-3.434 43-6l-27.599-5.552zm20.35-19.25c-0.866 0.834-1.733 1.817-2.6 2.95-3.267 4.601-15.1 8.316-35.5 11.15 14.7-3.134 23.684-6.55 26.95-10.25h-14.75c5.4-1.566 14.033-2.85 25.9-3.85zm-0.65 39.35c3.866 1.166 12.5 3.883 25.899 8.149 12.567 4.134 21.417 7.417 26.551 9.851-8.134 0.733-12.917 1.1-14.351 1.1-8 0-20.7-2.217-38.1-6.649-14.267-3.733-26.967-7.517-38.101-11.351l7.7 1.3c29.533 7.4 47.867 9.884 55 7.45-2.399-0.833-5.184-1.899-8.35-3.2-5.564-2.133-10.981-4.35-16.248-6.65zm35.1-46.2c12.867-2.434 22.934-5.434 30.2-9-6.267 9.267-16.116 16.4-29.55 21.4-13.267 5-29.9 8.416-49.9 10.25 14.7-3.834 31.9-10.034 51.601-18.601-14.534 1-26.367 1.851-35.5 2.55 9.399-1.999 20.449-4.199 33.149-6.599zm69.8-70.9c27.267-14.4 44.25-29.167 50.95-44.3-59.5 44.967-116.08 72.233-169.75 81.8 71.5-20.866 137.58-59.2 198.25-115-7.567 32.7-34.05 58.533-79.45 77.5zm-261.6 80.7c-0.867-1.133-1.65-2.116-2.35-2.95 11.833 1 20.467 2.284 25.9 3.851h-14.8c3.3 3.7 12.217 7.116 26.75 10.25-20.267-2.835-32.1-6.551-35.5-11.151zm-9.85 25.5c-9-2-16.433-5.283-22.3-9.85 2.566 0.133 5.717 0.2 9.45 0.2 18.833-0.134 32.317 0.017 40.45 0.449l-27.6 5.551c15.833 2.566 30.167 4.566 43 6-16.833 1-31.167 0.216-43-2.35zm-18.2-71.95c11.566 2.567 19.983 4.934 25.25 7.101l-14.75-1.75c2.7 4 11.183 8.566 25.45 13.7-19.7-5.7-30.967-10.967-33.8-15.801-0.733-1.3-1.45-2.383-2.15-3.25zm11.95 23.8c-0.833-1.434-1.617-2.517-2.35-3.25 11.733 1.866 20.3 3.733 25.7 5.6l-14.75-0.85c3 3.833 11.7 7.899 26.1 12.199-19.967-4.432-31.533-8.999-34.7-13.699zm-23.75 78.15c-1.433 0-6.217-0.366-14.35-1.1 5.133-2.434 13.983-5.717 26.55-9.851 13.267-4.267 21.833-6.983 25.7-8.149-5.267 2.3-10.683 4.517-16.25 6.649-3 1.301-5.716 2.367-8.15 3.2 7 2.434 25.333-0.05 55-7.45l7.75-1.3c-11.133 3.834-23.85 7.617-38.15 11.351-17.533 4.433-30.233 6.65-38.1 6.65zm-44.75-107.5c6.567 4.7 16 9.2 28.3 13.5 12.267 4.134 22.966 7.834 32.1 11.101-9-2.134-20.633-4.617-34.9-7.45 18.133 11.267 34.267 19.816 48.4 25.649-19.566-4.699-35.566-10.466-48-17.3-12.533-6.866-21.167-15.366-25.9-25.5zm-31.25 34.45c5.7 3.167 19.267 7.316 40.7 12.45-24.267-1.867-42.117-4.934-53.55-9.2-13.133-4.566-25.9-11.134-38.3-19.7 7.267 0.267 15.533 1.267 24.8 3 6.434 1.267 28 3.684 64.7 7.25-23.133 1.566-36.767 2.217-40.9 1.95-3.867-0.167-3.017 1.25 2.55 4.25zm13.05 26.8c9.566 5.4 30.05 9.033 61.45 10.9-27.967 3-49.867 2.283-65.7-2.15-12-3.434-24.067-9.5-36.2-18.2 24.267 3.733 51.95 5.45 83.05 5.15-22.833 2-37.033 3.434-42.6 4.3zm23.35 35.1c-9.7-0.134-17.333-1.417-22.9-3.851l9.85-3.85c6-1.434 14.783-3.367 26.35-5.8 11.267-2.434 19.9-4.284 25.9-5.551-16.267 4-27.9 7.5-34.9 10.5-2.167 0.7-2.033 1.4 0.4 2.101 7.7 1.866 25.467 1.083 53.3-2.351-28.967 5.869-48.3 8.802-58 8.802zm12.4-63.15c7.3 3.566 17.3 6.566 30 9 12.833 2.4 23.9 4.6 33.2 6.6-9.133-0.699-20.917-1.55-35.35-2.55 19.567 8.566 36.767 14.767 51.6 18.601-19.967-1.834-36.667-5.25-50.1-10.25-13.4-5.001-23.183-12.134-29.35-21.401zm-90.55-106.2c6.7 15.133 23.617 29.9 50.75 44.3-45.233-18.967-71.717-44.8-79.45-77.5 60.8 55.8 126.88 94.133 198.25 115-53.5-9.567-110.02-36.833-169.55-81.8zm58.65 43.9c6.3 5.133 15.517 10.2 27.65 15.2 11.966 4.833 22.383 9.184 31.25 13.05-9-2.567-20.483-5.784-34.45-9.65 17.4 12.434 33.017 22 46.85 28.7-19.267-5.866-34.883-12.583-46.85-20.15-12.133-7.7-20.283-16.75-24.45-27.15zm-79.2 8.95c7.267 1 19.467 4.434 36.6 10.3 8.3 3 25.367 7.633 51.2 13.899l-36.4-4.25c-7.133 0.7 7.067 7.683 42.6 20.95-32.267-6.967-54.467-14.1-66.6-21.4-12.267-7.266-21.4-13.766-27.4-19.499zm34.25-15.2c-1.267 1.167 2.45 5.1 11.15 11.8 8.7 6.867 21.4 14.283 38.1 22.25-29.1-11.7-47.65-20.4-55.65-26.1-11.567-8-22.2-17.783-31.9-29.35 7 2.167 14.767 5.317 23.3 9.45 5.433 2.567 23.433 10.05 54 22.45-24.433-8.133-37.433-11.633-39-10.5z" fill="inherit" fill-rule="evenodd"/></g></svg>