<?xml version="1.0" encoding="UTF-8" standalone="no"?><svg xmlns="http://www.w3.org/2000/svg" xmlns:xlink="http://www.w3.org/1999/xlink" fill="#c1ff72" height="525" preserveAspectRatio="xMidYMid meet" version="1" viewBox="0.0 -0.0 530.1 525.0" width="530.1" zoomAndPan="magnify"><g id="change1_1"><path d="M490.02,507.203c12.434,6.183,26.184,10.29,40.095,11.826v5.97c-2.022-.209-4.039-.471-6.051-.784-43.206-7.595-71.222-28.642-86.212-70.225-5.314-16.618-6.385-34.201-9.825-51.237-2.346-12.093-5.986-23.856-11.332-34.711-13.349-25.085-32.894-45.714-52.776-65.477-11.963-11.666-24.992-23.179-35.889-35.727-21.737-24.042-38.082-52.401-49.841-82.517-9.904-22.563-19.252-46.637-35.982-65.064-18.315-20.824-45.112-32.022-71.773-37.637C105.827,67.8,58.29,97.257,13.318,30.515,7.6,21.751,3.817,11.917,.622,1.994,.41,1.331,.203,.666,0,0H6.236c2.07,6.508,4.451,12.922,7.378,19.09,7.859,14.977,19.349,28.257,33.158,38.04,13.178,9.088,29.3,12.496,45.042,13.591,23.054,.974,46.285-.686,69.158,3.19,36.895,5.43,73.373,21.297,94.953,52.92,19.869,29.161,28.693,64.072,46.396,94.382,10.804,19.081,24.654,36.543,39.863,52.155,26.731,26.091,55.127,51.279,74.977,83.305,10.887,17.495,15.997,37.804,18.941,58.007,3.677,24.96,5.977,41.917,20.485,63.557,8.346,12.543,19.911,22.605,33.431,28.966ZM69.646,31.716c10.162,5.004,21.431,7.411,32.741,7.41,21.169-.001,42.465-8.439,56.815-24.08,4.322-4.618,8.23-9.657,11.564-15.046h-7.076c-8.71,12.94-21.005,23.724-35.939,28.711-24.821,9.079-55.73,4.424-73.744-15.923-3.412-3.783-6.162-8.147-8.415-12.788h-6.587c6.239,13.715,16.45,25.336,30.642,31.716Zm140.384,12.148c3.253,1.73,6.223,2.493,8.952,2.493,15.684-.002,23.35-25.235,30.507-37.246,1.62-3.073,3.272-6.135,5.065-9.111h-6.876c-.774,1.371-1.525,2.754-2.265,4.141-5.847,9.417-14.119,33.9-24.928,36.144-6.255,1.057-11.629-4.011-14.944-8.764-5.637-8.807-8.185-20.364-8.329-31.521h-5.925c.198,16.911,5.369,35.771,18.743,43.864Zm242.487,250.583c-17.754,4.099-36.867-1.08-50.268-13.391-5.773-5.161-10.781-11.022-15.895-16.822-14.94-18.32-35.221-32.629-48.812-52.197-6.853-10.224-11.36-21.728-16.915-32.666-4.41-8.801-9.366-17.439-14.638-25.887-9.839-15.867-21.033-31.095-27.116-48.946-10.233-29.801-8.11-62.722-.181-93.01,.992-3.863,2.103-7.695,3.213-11.527h-6.186c-4.698,16.025-8.342,32.403-9.231,49.118-2.745,39.812,6.951,66.696,29.272,99.288,7.595,11.819,14.856,23.856,21.005,36.501,5.3,10.748,9.849,21.946,16.785,31.79,3.473,4.961,7.4,9.594,11.546,14.003,12.45,12.71,25.897,24.417,37.368,38.078,13.693,16.349,28.183,30.088,50.379,32.615,2.248,.23,4.506,.343,6.765,.343,13.653,0,27.309-4.131,38.732-11.587,11.685-7.577,20.518-17.898,32.11-25.938,5.825-4.079,12.664-6.821,19.665-7.544v-6.069c-2.125,.166-4.235,.518-6.297,1.075-28.382,7.475-39.353,37.02-71.3,42.775Zm54.376,7.595c-17.866,20.597-31.623,45.353-37.874,72.019-2.944,13.057-2.828,27.928,5.995,38.829,4.512,5.569,11.3,8.23,17.592,11.226,5.082,2.42,9.288,6.288,11.736,11.425,2.842,6.311,3.811,13.795,7.488,19.818,4.062,6.945,10.63,12.6,18.283,15.18v-6.371c-4.809-2.062-9.062-5.636-11.991-9.922-7.09-10.938-5.379-23.792-17.458-32.184-6.519-4.864-15.26-6.32-20.764-12.58-15.455-19.553-.621-50.949,8.708-70.698,6.32-11.745,14.105-22.758,22.776-32.884,5.629-6.079,11.341-12.664,18.728-16.584v-6.517c-9.158,3.793-16.686,11.917-23.221,19.243Zm-14.699-84.854c-30.923,16.336-49.044,46.044-86.546,21.524-11.198-7.637-19.326-18.751-26.861-29.824-13.753-19.943-24.445-41.717-36.037-62.926-11.676-21.589-26.564-42.534-28.215-67.888-.677-11.407,.876-22.957,4.526-33.784,3.844-11.736,10.233-23.003,10.424-35.615,.179-1.36-.096-4.699-.745-8.675h-5.99c.294,1.808,.527,3.619,.725,5.411,.913,16.985-10.215,31.526-13.011,47.898-6.682,30.923,3.723,55.424,19.252,81.497,15.204,26.37,27.951,54.181,45.394,79.211,10.206,15.162,22.748,30.014,40.377,36.492,6.274,2.393,12.019,3.425,17.396,3.425,16.909,0,30.165-10.21,44.695-20.419,14.576-10.241,30.427-20.482,52.535-20.419v-5.91c-1.8,0-3.602,.064-5.402,.191-11.416,.751-22.465,4.465-32.518,9.812Zm-12.784-43.099c-11.977,6.709-21.872,16.762-34.081,23.101-8.986,4.512-20.894,6.376-29.495-.097-16.734-12.937-24.315-34.141-31.173-53.439-3.362-9.672-6.362-19.484-10.377-29.026-3.056-7.201-6.654-14.077-10.182-21.06-5.462-10.846-11.513-23.319-6.589-35.527,2.198-6.121,5.527-11.768,9.056-17.203,5.773-8.448,12.812-16.757,14.305-27.218,.606-2.71,.431-8.052-.423-13.618h-5.984c.326,1.944,.571,3.897,.788,5.815,.825,8.36-2.708,16.238-7.447,22.924-6.408,9.07-13.187,18.468-16.512,29.254-5.541,16.651,4.85,32.393,11.903,46.906,13.618,26.147,17.74,56.639,34.54,81.344,7.002,10.206,16.813,20.583,30,21.042,.431,.015,.857,.023,1.283,.023,18.536,0,32.336-14.112,46.777-23.911,15.475-11.267,35.462-16.276,54.316-13.013v-5.97c-2.348-.396-4.714-.684-7.094-.839-15.121-.844-30.603,2.699-43.609,10.516Zm36.487-63.524c-20.652-5.031-27.306-23.495-52.535-21.042-6.297,.376-12.422,1.906-18.57,3.209-3.292,.566-6.784,1.516-10.076,.515-12.886-5.555-10.451-36.116-11.119-48.237-.181-11.912-.839-24.079-5.708-35.133-.509-1.581-2.503-5.52-5.103-9.876h-6.912c1.753,2.629,3.345,5.368,4.739,8.216,7.567,14.3,6.923,30.802,7.187,46.517,.543,14.411-.102,43.382,19.243,44.88,11.152-.348,21.807-5.221,33.112-4.229,8.05,.376,15.186,4.475,21.501,9.181,8.675,6.39,18.427,12.519,29.564,12.519,.092,0,.183,.001,.275,.001,2.915,0,5.801-.411,8.619-1.122v-6.128c-4.61,1.337-9.441,1.724-14.216,.73Zm-40.424-59.602c-18.57-11.856-26.69-23.611-28.359-45.914-.123-1.677-.201-3.361-.288-5.049h-2.381c.089,1.738,.176,3.46,.309,5.263,1.72,24.246,11.309,36.418,31.461,49.034,16.604,10.226,33.874,22.845,53.898,24.218v-2.43c-19.227-.873-39.261-15.599-54.64-25.121Zm15.853,85.29c-15.64,3.723-31.623,8.977-47.866,5.638-14.189-2.949-26.087-12.904-34.479-24.399-5.842-8.815-9.71-18.904-11.889-29.249-6.448-28.801,2.74-59.641-3.523-88.243h-2.461c3.733,16.796,2.247,34.71,1.366,51.854-.654,16.141-.019,32.643,5.351,48.033,7.08,22.03,25.697,42.084,49.442,45.037,2.356,.287,4.699,.415,7.034,.415,14.67,0,28.963-5.083,43.243-8.043,10.662-2.429,21.815-2.841,32.569-1.009v-2.44c-12.818-2.05-26.187-.929-38.787,2.405ZM220.862,10.771c.691,.348,1.353,.502,1.985,.502,3.118,0,5.495-3.747,7.08-6.288,.334-.556,.125-1.303-.427-1.628-1.317-.714-1.892,.969-2.495,1.808-5.178,7.954-7.609,1.462-8.129-5.165h-2.466c.33,4.594,1.706,9.216,4.451,10.771Zm-12.473,57.923c2.408,.865,4.78,1.255,7.101,1.255,10.584,0,20.077-8.102,26.808-16.069,6.705-7.614,12.371-15.858,16.915-25.016,4.727-9.052,7.652-18.876,9.904-28.864h-2.38c-3.347,14.379-8.578,28.327-17.08,40.526-7.127,9.853-15.728,21.594-27.557,25.966-13.521,4.655-25.401-6.668-32.342-17.17-8.124-11.652-11.105-26.467-7.938-40.377,.559-3.045,1.379-6.013,2.318-8.944h-2.491c-.864,2.829-1.616,5.69-2.174,8.597-3.339,14.634-.009,30.469,8.74,42.663,5.11,7.275,11.518,14.453,20.175,17.434Zm286.848,224.51c-30.965,24.9-49.238,49.109-41.407,90.729,3.399,17.142,9.57,33.747,17.898,49.095,5.564,10.725,12.825,20.49,22.039,28.354,11.792,11.241,22.838,25.002,36.348,34.481v-2.956c-2.628-1.918-5.161-3.988-7.609-6.143-9.176-7.961-16.929-17.342-25.665-25.758-4.692-4.243-9.255-8.55-13.178-13.553-4.971-6.306-8.81-13.563-12.575-20.699-13.628-28.285-24.181-62.917-9.459-92.838,7.66-14.75,20.064-26.268,32.662-36.858,9.605-7.508,22.971-19.24,35.824-24.913v-2.679c-2.185,.926-4.384,2.076-6.654,3.461-10.085,5.75-19.201,13.02-28.224,20.277Z"/></g></svg>