<?xml version="1.0" encoding="UTF-8" standalone="no"?><svg xmlns="http://www.w3.org/2000/svg" xmlns:xlink="http://www.w3.org/1999/xlink" fill="#fefefe" height="223.6" preserveAspectRatio="xMidYMid meet" version="1" viewBox="-0.1 0.0 489.8 223.6" width="489.8" zoomAndPan="magnify"><g id="change1_1"><path d="M340.78836,0.69286c0.49344,1.57155-0.35971,2.72562-0.85364,3.90565c-5.25143,12.54651-11.77881,24.4796-17.75635,36.67574 c-10.04865,20.50262-20.43698,40.82133-28.95813,62.05954c-5.05255,12.593-10.69247,24.96544-15.8602,37.52632 c-0.40375,0.98129-0.76337,2.93806-1.96783,2.38538c-1.46832-0.67371-0.08087-2.18314,0.34564-3.2206 c6.43155-15.64465,12.78372-31.32372,19.40652-46.88747c6.72583-15.80573,14.82135-30.96694,22.35004-46.39393 c7.20111-14.75582,14.52246-29.45296,21.80005-44.17141C339.61374,1.92631,339.74429,1.12501,340.78836,0.69286z M155.45717,2.08582 c1.22385,4.15202,2.42087,8.30825,4.09537,12.31525c5.90833,14.13843,12.4617,28.06181,17.22646,42.60904 c9.57388,29.23004,21.95027,57.38958,32.20245,86.35051c0.31346,0.88548,0.38312,2.66519,1.82848,2.12407 c1.27203-0.47621,0.12476-1.75534-0.12894-2.60303c-2.36641-7.90675-5.46126-15.55939-8.48759-23.21929 C186.7731,80.63216,172.41263,41.19724,157.15607,2.10541c-0.31055-0.79568-0.4296-1.82555-1.70166-2.10541 C155.05084,0.81063,155.26808,1.44438,155.45717,2.08582z M330.6911,188.85614 c12.04239-5.50652,24.05707-11.07855,36.06824-16.64749c18.43845-8.54893,36.68338-17.52057,55.22482-25.85509 c14.28076-6.4193,28.82172-12.28023,42.53415-19.90998c1.00391-0.55856,2.31479-0.79461,3.08789-2.71025 c-47.98352,21.35946-94.64908,44.14683-141.74231,66.04725C327.71893,190.3308,329.22336,189.52727,330.6911,188.85614z M340.79456,222.83307c16.51303-0.50922,33.0239,0.53108,49.54282-0.06625c11.83701-0.42809,23.67874,0.3566,35.51892,0.56978 c14.77145,0.26599,29.51279-0.59492,44.26257-1.15306c6.00171-0.22711,12.00534-0.40343,18.00757-0.61694 c0.65176-0.02322,1.59726-0.02155,1.57001-0.8329c-0.03287-0.97797-1.0329-0.58331-1.60742-0.56538 c-3.4184,0.10658-6.83429,0.28961-10.25195,0.42238c-28.92554,1.12404-57.8757,0.15535-86.80804,1.08415 c-17.92416,0.57541-35.85464-1.15179-53.79291-0.31778c-1.02704,0.04776-2.14667-0.26706-3.1611,0.87421 C336.38284,222.94453,338.60321,222.90065,340.79456,222.83307z M152.33673,220.77286 c-3.41649-0.1059-6.83516-0.13792-10.25246-0.22195c-14.18302-0.34868-28.31812,1.27602-42.49199,1.07909 c-13.08596-0.18178-26.16716-0.70493-39.25312-0.88744c-19.42554-0.27095-38.8498,0.12961-58.27332,0.40721 c-0.77954,0.01112-2.02082-0.29108-2.06436,0.80414c-0.0515,1.29549,1.24333,0.75539,1.94583,0.76009 c9.33913,0.06276,18.67955,0.17526,28.0178,0.08504c33.59662-0.32469,67.1977,0.1808,100.79222-0.58704 c6.9176-0.15813,13.84181-0.01207,20.76262-0.0594c1.02301-0.007,2.1879,0.326,3.06012-0.65106 C154.02075,220.6068,153.11177,220.79688,152.33673,220.77286z M27.29267,125.02786 c16.61421,7.76143,33.23496,15.47353,49.19133,24.58885c21.80048,12.45384,45.01395,22.17354,67.09995,34.10297 c5.783,3.12364,11.90117,5.62852,17.88373,8.37772c0.492,0.22607,1.24359,1.03102,1.65115,0.01378 c0.27437-0.6848-0.56001-0.90327-1.05067-1.16547c-1.61716-0.86415-3.22926-1.74049-4.87346-2.55096 c-13.90848-6.8558-27.90944-13.52992-41.71909-20.57896c-29.70075-15.16052-59.4287-30.26509-89.32129-45.0442 c-0.70741-0.34975-1.3773-1.03474-2.58461-0.38633C24.52692,123.89219,25.97433,124.41197,27.29267,125.02786z M245.44687,31.63191 c-0.14537,10.92369-0.34416,21.84692-0.43678,32.77102c-0.20509,24.18668-0.5383,48.3736-0.12099,72.56109 c0.01834,1.06421-0.3894,2.8385,1.17868,2.78639c1.40672-0.04669,0.79002-1.75858,0.82487-2.735 c0.63406-17.75995-0.73523-35.50553-0.16417-53.28352c0.53807-16.75117,0.13969-33.5326,0.12865-50.3007 c-0.00069-1.03432,0.30927-2.18021-0.7151-3.17782C245.47734,30.63482,245.45369,31.11875,245.44687,31.63191z M384.06021,85.53473 c-0.57697,0.29036-1.10736,0.71545-1.57977,1.16498c-6.58173,6.26325-13.09143,12.60355-19.73727,18.79778 c-7.74301,7.21687-15.70535,14.20023-23.38638,21.48125c-10.88614,10.31927-21.4295,20.9902-31.78329,31.84553 c-0.68939,0.72273-1.34576,1.4805-1.97104,2.25928c-0.31375,0.39078-0.556,0.92694-0.14163,1.35408 c0.53842,0.55499,1.0715,0.20113,1.50565-0.23167c1.18005-1.17641,2.33258-2.38052,3.51547-3.55399 c6.27145-6.2215,12.85309-12.16316,18.75146-18.7198c8.4415-9.38361,17.43518-18.14864,27.02832-26.31459 c9.34354-7.95353,17.94885-16.68283,26.7598-25.1972c0.71075-0.68684,1.32016-1.47863,1.88544-2.11836 C384.86609,85.54408,384.44958,85.33881,384.06021,85.53473z M108.45002,83.22142c0.44428,1.31953,1.51596,2.16797,2.45168,3.09067 c20.24892,19.96747,39.40666,41.00169,59.63518,60.98846c4.51051,4.45663,8.78642,9.13142,13.04482,13.82491 c0.47163,0.51982,1.08653,1.34052,1.86646,0.6315c0.7847-0.71339,0.02959-1.3517-0.46313-1.89279 c-1.79633-1.97278-3.57733-3.96097-5.42104-5.88892c-11.98981-12.53766-24.55635-24.50323-36.68141-36.90457 c-9.55678-9.77452-18.55404-20.09332-28.55609-29.43782c-1.78189-1.66473-3.58624-3.30544-5.38022-4.95723 C108.78085,82.85756,108.61543,83.03949,108.45002,83.22142z M198.09891,151.59702c-0.20839-1.9341-1.41388-3.45288-2.427-5.01382 c-8.26064-12.72714-16.39699-25.53683-25.09097-37.97784c-1.81418-2.59608-3.59375-5.21648-5.42346-7.80147 c-0.31552-0.44579-0.76967-1.06027-1.41855-0.56574c-0.52258,0.39832-0.06874,0.91275,0.14398,1.33574 c0.18639,0.37061,0.4281,0.71513,0.66223,1.05975c9.08629,13.37397,18.658,26.42354,26.71669,40.48254 c1.78957,3.12206,4.11417,5.93745,6.1924,8.89404C197.66911,151.87251,197.88402,151.73476,198.09891,151.59702z M229.87029,139.85501c-0.00739-2.62155-1.02652-5.0442-1.50653-7.57243c-3.18179-16.75838-6.32281-33.5245-9.51396-50.28109 c-0.21896-1.14976-0.18796-3.28811-1.38713-3.03658c-1.48282,0.31107-0.64656,2.24704-0.39816,3.44621 c3.17278,15.31591,6.97592,30.50597,8.89613,46.06895c0.52654,4.2675,1.76459,8.40552,3.05133,12.63307 C229.94893,140.69637,229.87137,140.24011,229.87029,139.85501z M171.89232,171.78358 c-2.51433-2.33661-5.38412-4.20015-8.19679-6.14403c-9.32587-6.4453-18.6627-12.8736-27.59711-19.8669 c-2.81856-2.20621-5.80942-4.19484-8.75858-6.22923c-0.57103-0.39389-1.45347-0.93755-1.9493-0.03957 c-0.39645,0.71797,0.45135,1.16479,0.9644,1.53697c1.6866,1.22345,3.39149,2.42339,5.11937,3.58784 c2.97159,2.00264,6.0217,3.89313,8.94041,5.96907c10.18883,7.2467,19.77667,15.3121,30.21698,22.21652 c0.83276,0.5507,1.49774,1.66954,2.87112,1.1232C173.33919,172.90288,172.53999,172.38548,171.89232,171.78358z M156.98457,205.30116c-0.36079-0.18523-0.70378-0.47554-1.08501-0.54013c-7.79715-1.32069-15.3-3.89296-23.0583-5.3857 c-9.31571-1.79245-18.26802-5.03856-27.54525-6.97966c-1.6509-0.34543-3.38934-1.18077-5.28675-0.30061 c0.87519,1.23828,2.08042,1.30951,3.17802,1.58989c7.40802,1.89255,14.85877,3.58881,22.32732,5.23497 c7.62143,1.67978,15.09515,4.01964,22.67162,5.91862c2.82838,0.70895,5.73523,1.33405,8.68321,1.08519 C156.90781,205.7162,156.94618,205.50867,156.98457,205.30116z M320.05588,175.6447 c2.30679-1.63991,4.56094-3.35376,6.86102-5.00333c11.02328-7.9057,22.06323-15.78825,33.07303-23.71272 c1.27798-0.91986,2.42502-2.02727,3.59225-3.09213c0.39114-0.35687,1.06998-0.80157,0.47556-1.42294 c-0.42853-0.44788-0.94391,0.01584-1.32846,0.2804c-1.9205,1.3212-3.80496,2.69478-5.72623,4.01486 c-6.52237,4.4817-12.16492,10.12373-18.91083,14.31126c-6.30313,3.91269-12.34204,8.20493-18.17862,12.78146 c-0.89493,0.70175-1.97659,1.27492-2.27313,2.67151C318.84354,176.84891,319.41653,176.09921,320.05588,175.6447z M296.48788,146.47878c6.21524-10.05893,12.48117-20.0821,19.54617-29.57939c2.68747-3.6127,5.0726-7.42418,7.29794-11.33498 c0.40067-0.70409,1.11285-1.73378,0.30753-2.23801c-0.90427-0.56618-1.37091,0.63416-1.76813,1.29426 c-8.58871,14.27364-18.33731,27.7891-27.29898,41.81799c-1.08786,1.70294-2.4155,3.30324-2.76895,5.4259 C294.02338,150.57935,295.2402,148.498,296.48788,146.47878z M261.6683,140.29596c0.22708-0.86497,0.50369-1.72029,0.67383-2.5963 c3.23495-16.65436,6.15134-33.37244,10.03806-49.89624c0.39951-1.6985,0.65051-3.43462,0.90634-5.16278 c0.09515-0.64281,0.14481-1.51371-0.71646-1.6161c-0.85785-0.102-0.9147,0.80674-1.12012,1.40874 c-0.10562,0.30956-0.09619,0.65764-0.14536,0.98732c-2.28281,15.31113-5.71698,30.39933-8.74164,45.56802 c-0.73392,3.68071-1.46945,7.42534-1.54828,11.21428C261.23257,140.2339,261.45044,140.26492,261.6683,140.29596z M387.00906,194.03516c-18.1532,3.80957-36.32355,7.54387-54.21826,12.51627 C336.51666,207.11536,385.86243,195.66724,387.00906,194.03516z M93.72305,190.91145 c0.24165,0.02701,0.65568-0.24048,0.75786-0.47292c0.21603-0.49142-0.19904-0.77156-0.59839-0.88297 c-2.88579-0.80498-5.7137-1.93857-8.84419-1.57816C87.72694,189.5914,90.6216,190.56535,93.72305,190.91145z M155.65955,88.18312 c-0.20857-0.0543-0.6223-0.02458-0.65051,0.06177c-0.0923,0.28231-0.16756,0.67085-0.04152,0.90814 c1.13737,2.14165,2.54146,4.10503,4.12608,5.93861c0.29245,0.33838,0.69112,0.51353,1.10815,0.29855 c0.16724-0.08621,0.22359-0.38749,0.27293-0.48144C160.47881,93.92419,156.459,88.39111,155.65955,88.18312z M369.46417,137.40274 c-0.40021,0.31882-0.65915,0.85321-0.33932,1.31816c0.36609,0.53227,0.91226,0.23439,1.32336-0.01773 c2.11414-1.29649,3.99841-2.85445,5.33627-5.04176C373.35403,134.44441,371.37827,135.8781,369.46417,137.40274z M215.62326,72.02354c0.10912,0.45599,0.26772,1.03177,0.92227,0.94698c0.48003-0.06222,0.68349-0.47817,0.58167-0.92209 c-0.61177-2.66735-0.71722-5.50051-2.59889-7.79137C214.30553,66.94592,215.01419,69.47853,215.62326,72.02354z M275.76172,67.50827 c0.03531-0.24488-0.2135-0.67946-0.44107-0.78313c-0.49988-0.22777-0.75949,0.22442-0.85397,0.60625 c-0.60199,2.43193-1.49765,4.84084-0.61646,7.44966C275.49033,72.59441,275.40314,69.99282,275.76172,67.50827z M332.24411,90.47054 c-1.89566,2.45544-4.38599,4.51228-4.99484,7.80331C329.37408,95.96394,331.56812,93.69708,332.24411,90.47054z M110.99728,129.96974c1.71308,2.41656,4.16511,3.80791,6.92642,4.8058C116.12302,132.4729,113.97481,130.62085,110.99728,129.96974 z M393.26483,192.88136c2.72403-0.46396,5.62793-0.30519,7.83212-2.42171 C398.35355,190.88326,395.41415,190.66319,393.26483,192.88136z" fill="inherit"/></g><g id="change1_2"><path d="M340.78836,0.69286c0.49344,1.57155-0.35971,2.72562-0.85364,3.90565c-5.25143,12.54651-11.77881,24.4796-17.75635,36.67574 c-10.04865,20.50262-20.43698,40.82133-28.95813,62.05954c-5.05255,12.593-10.69247,24.96544-15.8602,37.52632 c-0.40375,0.98129-0.76337,2.93806-1.96783,2.38538c-1.46832-0.67371-0.08087-2.18314,0.34564-3.2206 c6.43155-15.64465,12.78372-31.32372,19.40652-46.88747c6.72583-15.80573,14.82135-30.96694,22.35004-46.39393 c7.20111-14.75582,14.52246-29.45296,21.80005-44.17141C339.61374,1.92631,339.74429,1.12501,340.78836,0.69286z M155.45717,2.08582 c1.22385,4.15202,2.42087,8.30825,4.09537,12.31525c5.90833,14.13843,12.4617,28.06181,17.22646,42.60904 c9.57388,29.23004,21.95027,57.38958,32.20245,86.35051c0.31346,0.88548,0.38312,2.66519,1.82848,2.12407 c1.27203-0.47621,0.12476-1.75534-0.12894-2.60303c-2.36641-7.90675-5.46126-15.55939-8.48759-23.21929 C186.7731,80.63216,172.41263,41.19724,157.15607,2.10541c-0.31055-0.79568-0.4296-1.82555-1.70166-2.10541 C155.05084,0.81063,155.26808,1.44438,155.45717,2.08582z M330.6911,188.85614 c12.04239-5.50652,24.05707-11.07855,36.06824-16.64749c18.43845-8.54893,36.68338-17.52057,55.22482-25.85509 c14.28076-6.4193,28.82172-12.28023,42.53415-19.90998c1.00391-0.55856,2.31479-0.79461,3.08789-2.71025 c-47.98352,21.35946-94.64908,44.14683-141.74231,66.04725C327.71893,190.3308,329.22336,189.52727,330.6911,188.85614z M340.79456,222.83307c16.51303-0.50922,33.0239,0.53108,49.54282-0.06625c11.83701-0.42809,23.67874,0.3566,35.51892,0.56978 c14.77145,0.26599,29.51279-0.59492,44.26257-1.15306c6.00171-0.22711,12.00534-0.40343,18.00757-0.61694 c0.65176-0.02322,1.59726-0.02155,1.57001-0.8329c-0.03287-0.97797-1.0329-0.58331-1.60742-0.56538 c-3.4184,0.10658-6.83429,0.28961-10.25195,0.42238c-28.92554,1.12404-57.8757,0.15535-86.80804,1.08415 c-17.92416,0.57541-35.85464-1.15179-53.79291-0.31778c-1.02704,0.04776-2.14667-0.26706-3.1611,0.87421 C336.38284,222.94453,338.60321,222.90065,340.79456,222.83307z M152.33673,220.77286 c-3.41649-0.1059-6.83516-0.13792-10.25246-0.22195c-14.18302-0.34868-28.31812,1.27602-42.49199,1.07909 c-13.08596-0.18178-26.16716-0.70493-39.25312-0.88744c-19.42554-0.27095-38.8498,0.12961-58.27332,0.40721 c-0.77954,0.01112-2.02082-0.29108-2.06436,0.80414c-0.0515,1.29549,1.24333,0.75539,1.94583,0.76009 c9.33913,0.06276,18.67955,0.17526,28.0178,0.08504c33.59662-0.32469,67.1977,0.1808,100.79222-0.58704 c6.9176-0.15813,13.84181-0.01207,20.76262-0.0594c1.02301-0.007,2.1879,0.326,3.06012-0.65106 C154.02075,220.6068,153.11177,220.79688,152.33673,220.77286z M27.29267,125.02786 c16.61421,7.76143,33.23496,15.47353,49.19133,24.58885c21.80048,12.45384,45.01395,22.17354,67.09995,34.10297 c5.783,3.12364,11.90117,5.62852,17.88373,8.37772c0.492,0.22607,1.24359,1.03102,1.65115,0.01378 c0.27437-0.6848-0.56001-0.90327-1.05067-1.16547c-1.61716-0.86415-3.22926-1.74049-4.87346-2.55096 c-13.90848-6.8558-27.90944-13.52992-41.71909-20.57896c-29.70075-15.16052-59.4287-30.26509-89.32129-45.0442 c-0.70741-0.34975-1.3773-1.03474-2.58461-0.38633C24.52692,123.89219,25.97433,124.41197,27.29267,125.02786z M245.44687,31.63191 c-0.14537,10.92369-0.34416,21.84692-0.43678,32.77102c-0.20509,24.18668-0.5383,48.3736-0.12099,72.56109 c0.01834,1.06421-0.3894,2.8385,1.17868,2.78639c1.40672-0.04669,0.79002-1.75858,0.82487-2.735 c0.63406-17.75995-0.73523-35.50553-0.16417-53.28352c0.53807-16.75117,0.13969-33.5326,0.12865-50.3007 c-0.00069-1.03432,0.30927-2.18021-0.7151-3.17782C245.47734,30.63482,245.45369,31.11875,245.44687,31.63191z M384.06021,85.53473 c-0.57697,0.29036-1.10736,0.71545-1.57977,1.16498c-6.58173,6.26325-13.09143,12.60355-19.73727,18.79778 c-7.74301,7.21687-15.70535,14.20023-23.38638,21.48125c-10.88614,10.31927-21.4295,20.9902-31.78329,31.84553 c-0.68939,0.72273-1.34576,1.4805-1.97104,2.25928c-0.31375,0.39078-0.556,0.92694-0.14163,1.35408 c0.53842,0.55499,1.0715,0.20113,1.50565-0.23167c1.18005-1.17641,2.33258-2.38052,3.51547-3.55399 c6.27145-6.2215,12.85309-12.16316,18.75146-18.7198c8.4415-9.38361,17.43518-18.14864,27.02832-26.31459 c9.34354-7.95353,17.94885-16.68283,26.7598-25.1972c0.71075-0.68684,1.32016-1.47863,1.88544-2.11836 C384.86609,85.54408,384.44958,85.33881,384.06021,85.53473z M108.45002,83.22142c0.44428,1.31953,1.51596,2.16797,2.45168,3.09067 c20.24892,19.96747,39.40666,41.00169,59.63518,60.98846c4.51051,4.45663,8.78642,9.13142,13.04482,13.82491 c0.47163,0.51982,1.08653,1.34052,1.86646,0.6315c0.7847-0.71339,0.02959-1.3517-0.46313-1.89279 c-1.79633-1.97278-3.57733-3.96097-5.42104-5.88892c-11.98981-12.53766-24.55635-24.50323-36.68141-36.90457 c-9.55678-9.77452-18.55404-20.09332-28.55609-29.43782c-1.78189-1.66473-3.58624-3.30544-5.38022-4.95723 C108.78085,82.85756,108.61543,83.03949,108.45002,83.22142z M198.09891,151.59702c-0.20839-1.9341-1.41388-3.45288-2.427-5.01382 c-8.26064-12.72714-16.39699-25.53683-25.09097-37.97784c-1.81418-2.59608-3.59375-5.21648-5.42346-7.80147 c-0.31552-0.44579-0.76967-1.06027-1.41855-0.56574c-0.52258,0.39832-0.06874,0.91275,0.14398,1.33574 c0.18639,0.37061,0.4281,0.71513,0.66223,1.05975c9.08629,13.37397,18.658,26.42354,26.71669,40.48254 c1.78957,3.12206,4.11417,5.93745,6.1924,8.89404C197.66911,151.87251,197.88402,151.73476,198.09891,151.59702z M229.87029,139.85501c-0.00739-2.62155-1.02652-5.0442-1.50653-7.57243c-3.18179-16.75838-6.32281-33.5245-9.51396-50.28109 c-0.21896-1.14976-0.18796-3.28811-1.38713-3.03658c-1.48282,0.31107-0.64656,2.24704-0.39816,3.44621 c3.17278,15.31591,6.97592,30.50597,8.89613,46.06895c0.52654,4.2675,1.76459,8.40552,3.05133,12.63307 C229.94893,140.69637,229.87137,140.24011,229.87029,139.85501z M171.89232,171.78358 c-2.51433-2.33661-5.38412-4.20015-8.19679-6.14403c-9.32587-6.4453-18.6627-12.8736-27.59711-19.8669 c-2.81856-2.20621-5.80942-4.19484-8.75858-6.22923c-0.57103-0.39389-1.45347-0.93755-1.9493-0.03957 c-0.39645,0.71797,0.45135,1.16479,0.9644,1.53697c1.6866,1.22345,3.39149,2.42339,5.11937,3.58784 c2.97159,2.00264,6.0217,3.89313,8.94041,5.96907c10.18883,7.2467,19.77667,15.3121,30.21698,22.21652 c0.83276,0.5507,1.49774,1.66954,2.87112,1.1232C173.33919,172.90288,172.53999,172.38548,171.89232,171.78358z M156.98457,205.30116c-0.36079-0.18523-0.70378-0.47554-1.08501-0.54013c-7.79715-1.32069-15.3-3.89296-23.0583-5.3857 c-9.31571-1.79245-18.26802-5.03856-27.54525-6.97966c-1.6509-0.34543-3.38934-1.18077-5.28675-0.30061 c0.87519,1.23828,2.08042,1.30951,3.17802,1.58989c7.40802,1.89255,14.85877,3.58881,22.32732,5.23497 c7.62143,1.67978,15.09515,4.01964,22.67162,5.91862c2.82838,0.70895,5.73523,1.33405,8.68321,1.08519 C156.90781,205.7162,156.94618,205.50867,156.98457,205.30116z M320.05588,175.6447 c2.30679-1.63991,4.56094-3.35376,6.86102-5.00333c11.02328-7.9057,22.06323-15.78825,33.07303-23.71272 c1.27798-0.91986,2.42502-2.02727,3.59225-3.09213c0.39114-0.35687,1.06998-0.80157,0.47556-1.42294 c-0.42853-0.44788-0.94391,0.01584-1.32846,0.2804c-1.9205,1.3212-3.80496,2.69478-5.72623,4.01486 c-6.52237,4.4817-12.16492,10.12373-18.91083,14.31126c-6.30313,3.91269-12.34204,8.20493-18.17862,12.78146 c-0.89493,0.70175-1.97659,1.27492-2.27313,2.67151C318.84354,176.84891,319.41653,176.09921,320.05588,175.6447z M296.48788,146.47878c6.21524-10.05893,12.48117-20.0821,19.54617-29.57939c2.68747-3.6127,5.0726-7.42418,7.29794-11.33498 c0.40067-0.70409,1.11285-1.73378,0.30753-2.23801c-0.90427-0.56618-1.37091,0.63416-1.76813,1.29426 c-8.58871,14.27364-18.33731,27.7891-27.29898,41.81799c-1.08786,1.70294-2.4155,3.30324-2.76895,5.4259 C294.02338,150.57935,295.2402,148.498,296.48788,146.47878z M261.6683,140.29596c0.22708-0.86497,0.50369-1.72029,0.67383-2.5963 c3.23495-16.65436,6.15134-33.37244,10.03806-49.89624c0.39951-1.6985,0.65051-3.43462,0.90634-5.16278 c0.09515-0.64281,0.14481-1.51371-0.71646-1.6161c-0.85785-0.102-0.9147,0.80674-1.12012,1.40874 c-0.10562,0.30956-0.09619,0.65764-0.14536,0.98732c-2.28281,15.31113-5.71698,30.39933-8.74164,45.56802 c-0.73392,3.68071-1.46945,7.42534-1.54828,11.21428C261.23257,140.2339,261.45044,140.26492,261.6683,140.29596z M387.00906,194.03516c-18.1532,3.80957-36.32355,7.54387-54.21826,12.51627 C336.51666,207.11536,385.86243,195.66724,387.00906,194.03516z M93.72305,190.91145 c0.24165,0.02701,0.65568-0.24048,0.75786-0.47292c0.21603-0.49142-0.19904-0.77156-0.59839-0.88297 c-2.88579-0.80498-5.7137-1.93857-8.84419-1.57816C87.72694,189.5914,90.6216,190.56535,93.72305,190.91145z M155.65955,88.18312 c-0.20857-0.0543-0.6223-0.02458-0.65051,0.06177c-0.0923,0.28231-0.16756,0.67085-0.04152,0.90814 c1.13737,2.14165,2.54146,4.10503,4.12608,5.93861c0.29245,0.33838,0.69112,0.51353,1.10815,0.29855 c0.16724-0.08621,0.22359-0.38749,0.27293-0.48144C160.47881,93.92419,156.459,88.39111,155.65955,88.18312z M369.46417,137.40274 c-0.40021,0.31882-0.65915,0.85321-0.33932,1.31816c0.36609,0.53227,0.91226,0.23439,1.32336-0.01773 c2.11414-1.29649,3.99841-2.85445,5.33627-5.04176C373.35403,134.44441,371.37827,135.8781,369.46417,137.40274z M215.62326,72.02354c0.10912,0.45599,0.26772,1.03177,0.92227,0.94698c0.48003-0.06222,0.68349-0.47817,0.58167-0.92209 c-0.61177-2.66735-0.71722-5.50051-2.59889-7.79137C214.30553,66.94592,215.01419,69.47853,215.62326,72.02354z M275.76172,67.50827 c0.03531-0.24488-0.2135-0.67946-0.44107-0.78313c-0.49988-0.22777-0.75949,0.22442-0.85397,0.60625 c-0.60199,2.43193-1.49765,4.84084-0.61646,7.44966C275.49033,72.59441,275.40314,69.99282,275.76172,67.50827z M332.24411,90.47054 c-1.89566,2.45544-4.38599,4.51228-4.99484,7.80331C329.37408,95.96394,331.56812,93.69708,332.24411,90.47054z M110.99728,129.96974c1.71308,2.41656,4.16511,3.80791,6.92642,4.8058C116.12302,132.4729,113.97481,130.62085,110.99728,129.96974 z M393.26483,192.88136c2.72403-0.46396,5.62793-0.30519,7.83212-2.42171 C398.35355,190.88326,395.41415,190.66319,393.26483,192.88136z" fill="inherit"/></g></svg>